<?xml version="1.0" encoding="UTF-8"?>
<svg id="Layer_1" xmlns="http://www.w3.org/2000/svg" version="1.1" viewBox="0 0 595.28 841.89">
  <!-- Generator: Adobe Illustrator 29.6.1, SVG Export Plug-In . SVG Version: 2.1.1 Build 9)  -->
  <defs>
    <style>
      .st0 {
        fill: #231f20;
      }
    </style>
  </defs>
  <path class="st0" d="M-56,281.25c3.22,0,3.22-5,0-5s-3.22,5,0,5h0Z"/>
  <path class="st0" d="M276.97,278.4c-7.25-7.58-17.83-11.14-28.19-10.95-10.97.2-21.31,4.7-29.91,11.33-4.97,3.82-9.37,8.28-13.29,13.17-.84,1.05-1.03,2.51,0,3.54.87.87,2.69,1.06,3.54,0,6.38-7.98,14.14-14.98,23.49-19.26,8.61-3.94,18.5-4.97,27.62-2.24,5.02,1.5,9.58,4.17,13.2,7.96,2.23,2.33,5.76-1.21,3.54-3.54h0Z"/>
  <path class="st0" d="M284.06,279.71c5.11-3.92,11.79-5.76,18.18-4.64s11.46,4.6,14.88,9.73c1.97,2.95,3.22,6.2,3.75,9.71.2,1.34,1.88,2.07,3.08,1.75,1.43-.39,1.95-1.74,1.75-3.08-1.09-7.2-5.24-13.68-11-18.05-6.13-4.65-13.99-6.2-21.51-4.86-4.2.75-8.27,2.52-11.65,5.11-1.07.82-1.64,2.15-.9,3.42.62,1.05,2.34,1.72,3.42.9h0Z"/>
  <path class="st0" d="M263.11,254.06c.7.44,1.38.9,2.04,1.39,0,0,.61.47.28.21.13.1.26.21.39.31.32.26.63.53.94.8,1.26,1.12,2.44,2.34,3.51,3.64.13.16.26.32.39.48.26.33-.01-.02.14.18.24.33.49.66.72,1,.47.68.91,1.37,1.32,2.08s.8,1.44,1.16,2.18c.18.37.35.75.51,1.12.1.24-.07-.2.08.2.09.23.18.46.27.69.46,1.22,1.71,2.19,3.08,1.75,1.19-.39,2.24-1.77,1.75-3.08-2.69-7.13-7.58-13.21-14.04-17.27-1.11-.7-2.8-.27-3.42.9-.65,1.23-.29,2.68.9,3.42h0Z"/>
</svg>