<?xml version="1.0" encoding="UTF-8"?>
<svg id="Layer_1" xmlns="http://www.w3.org/2000/svg" version="1.1" viewBox="0 0 595.28 841.89">
  <!-- Generator: Adobe Illustrator 29.6.1, SVG Export Plug-In . SVG Version: 2.1.1 Build 9)  -->
  <defs>
    <style>
      .st0 {
        fill: #231f20;
      }
    </style>
  </defs>
  <path class="st0" d="M-56,281.25c3.22,0,3.22-5,0-5s-3.22,5,0,5h0Z"/>
  <path class="st0" d="M269.13,376.52c-2.21-4.16-7.13-6.02-11.45-7.09-4.72-1.17-9.63-1.37-14.44-.75-9.54,1.24-18.19,5.64-25.45,11.86-3.92,3.36-7.33,7.24-10.41,11.38-.8,1.09-.18,2.79.9,3.42,1.27.74,2.61.19,3.42-.9,9.57-12.9,24.93-23.31,41.68-20.79,2.39.36,4.81.97,7.05,1.9,1.78.74,3.46,1.75,4.38,3.49,1.51,2.84,5.82.32,4.32-2.52h0Z"/>
  <path class="st0" d="M268.01,375c-17.06.25-33.76,7.58-45.43,20.04-2.2,2.35,1.33,5.89,3.54,3.54,10.79-11.51,26.11-18.34,41.89-18.57,3.21-.05,3.22-5.05,0-5h0Z"/>
  <path class="st0" d="M266.06,380.34c-9.04,3.14-16.8,9.18-22.04,17.2-.74,1.13-.23,2.76.9,3.42,1.22.71,2.68.24,3.42-.9,4.49-6.88,11.29-12.2,19.05-14.9,1.27-.44,2.12-1.71,1.75-3.08-.34-1.24-1.79-2.19-3.08-1.75h0Z"/>
  <path class="st0" d="M265.83,383.26c5.46,3.81,7.67,11.32,5.57,17.56-.43,1.28.5,2.73,1.75,3.08,1.37.38,2.64-.46,3.08-1.75,2.85-8.46-.62-18.15-7.87-23.21-1.11-.77-2.78-.2-3.42.9-.73,1.25-.21,2.65.9,3.42h0Z"/>
  <path class="st0" d="M269.88,382.62c11.22,2.32,20.21,12.51,20.76,24.03.15,3.2,5.15,3.22,5,0-.64-13.63-10.99-26.07-24.43-28.85-1.32-.27-2.7.38-3.08,1.75-.34,1.24.42,2.8,1.75,3.08h0Z"/>
  <path class="st0" d="M218.68,400.9c5.76-14.1,20.74-23.59,35.74-24.32,4.35-.21,8.64.29,12.8,1.57,3.08.94,4.4-3.88,1.33-4.82-16.55-5.05-35.51,1.01-46.93,13.79-3.31,3.7-5.89,7.87-7.76,12.46-.51,1.25.55,2.75,1.75,3.08,1.43.39,2.56-.49,3.08-1.75h0Z"/>
  <path class="st0" d="M273.65,381.09c4.39-2.32,9.76-1.65,14.01.9,2.07,1.24,3.84,2.94,5.06,5.01,1.54,2.63,1.81,5.7,1.86,8.79.06,4.26-.18,8.68,1.51,12.7.52,1.24,1.65,2.14,3.08,1.75,1.17-.32,2.27-1.82,1.75-3.08-1.58-3.77-1.25-7.8-1.33-11.8-.07-3.74-.57-7.45-2.45-10.75-3.2-5.6-9.3-9.13-15.63-9.82-3.58-.39-7.18.3-10.36,1.98-2.85,1.5-.32,5.82,2.52,4.32h0Z"/>
  <path class="st0" d="M271.63,384.25c9.94-1.09,20.42-.25,29.6,3.97,8.45,3.89,15.51,10.55,19.09,19.22,1.94,4.69,2.83,9.94,2.1,14.99-.19,1.33.33,2.69,1.75,3.08,1.18.32,2.88-.4,3.08-1.75,1.53-10.51-2.1-20.82-8.87-28.87-6.99-8.3-17.24-13.26-27.81-15.1-6.26-1.09-12.61-1.24-18.92-.55-1.34.15-2.5,1.04-2.5,2.5,0,1.24,1.15,2.65,2.5,2.5h0Z"/>
  <path class="st0" d="M297.44,391.05c7.67,6.07,13.48,14.24,16.49,23.56.98,3.05,5.81,1.75,4.82-1.33-3.26-10.1-9.44-19.18-17.78-25.77-1.06-.84-2.5-1.03-3.54,0-.87.87-1.06,2.69,0,3.54h0Z"/>
  <path class="st0" d="M269.26,379.11c6.23-.02,12.46-.04,18.69-.06l9.1-.03c2.71,0,5.5-.16,8.12.62,4.75,1.4,8.81,5.41,12.16,8.89s6.38,7.55,8.82,11.86c2.78,4.89,4.82,10.13,6.12,15.61.75,3.13,5.57,1.8,4.82-1.33-2.5-10.46-7.67-20.21-14.86-28.2-3.59-3.99-7.89-8.16-12.79-10.49-5.6-2.66-12.02-1.95-18.05-1.93-7.38.02-14.75.05-22.13.07-3.22.01-3.22,5.01,0,5h0Z"/>
  <path class="st0" d="M235.43,377.84c-12.91-.25-25.36,7.79-31.11,19.25-1.71,3.41-2.76,6.97-3.24,10.75-.17,1.34,1.27,2.5,2.5,2.5,1.49,0,2.33-1.15,2.5-2.5,1.79-14.02,15.37-25.27,29.35-25,3.22.06,3.22-4.94,0-5h0Z"/>
  <path class="st0" d="M268.01,384.19c-10.06-.42-20.14-.27-30.18.47-4.25.31-8.52.79-12.42,2.63-3.63,1.71-6.35,4.8-7.92,8.45-1.83,4.24-2.32,8.86-2.69,13.42-.11,1.35,1.23,2.5,2.5,2.5,1.44,0,2.39-1.15,2.5-2.5.53-6.51,1.4-14.26,7.97-17.47,3.15-1.54,6.87-1.79,10.31-2.04,4.65-.34,9.31-.55,13.98-.64,5.32-.1,10.64-.03,15.95.19,3.22.13,3.21-4.87,0-5h0Z"/>
</svg>