<?xml version="1.0" encoding="UTF-8"?>
<svg id="Layer_1" xmlns="http://www.w3.org/2000/svg" version="1.1" viewBox="0 0 595.28 841.89">
  <!-- Generator: Adobe Illustrator 29.6.1, SVG Export Plug-In . SVG Version: 2.1.1 Build 9)  -->
  <defs>
    <style>
      .st0 {
        fill: #231f20;
      }
    </style>
  </defs>
  <path class="st0" d="M-56,281.25c3.22,0,3.22-5,0-5s-3.22,5,0,5h0Z"/>
  <path class="st0" d="M269.13,376.52c-2.21-4.16-7.13-6.02-11.45-7.09-4.72-1.17-9.63-1.37-14.44-.75-9.54,1.24-18.19,5.64-25.45,11.86-3.92,3.36-7.33,7.24-10.41,11.38-.8,1.09-.18,2.79.9,3.42,1.27.74,2.61.19,3.42-.9,9.57-12.9,24.93-23.31,41.68-20.79,2.39.36,4.81.97,7.05,1.9,1.78.74,3.46,1.75,4.38,3.49,1.51,2.84,5.82.32,4.32-2.52h0Z"/>
  <path class="st0" d="M268.01,375c-17.06.25-33.76,7.58-45.43,20.04-2.2,2.35,1.33,5.89,3.54,3.54,10.79-11.51,26.11-18.34,41.89-18.57,3.21-.05,3.22-5.05,0-5h0Z"/>
  <path class="st0" d="M266.06,380.34c-9.04,3.14-16.8,9.18-22.04,17.2-.74,1.13-.23,2.76.9,3.42,1.22.71,2.68.24,3.42-.9,4.49-6.88,11.29-12.2,19.05-14.9,1.27-.44,2.12-1.71,1.75-3.08-.34-1.24-1.79-2.19-3.08-1.75h0Z"/>
  <path class="st0" d="M265.83,383.26c5.46,3.81,7.67,11.32,5.57,17.56-.43,1.28.5,2.73,1.75,3.08,1.37.38,2.64-.46,3.08-1.75,2.85-8.46-.62-18.15-7.87-23.21-1.11-.77-2.78-.2-3.42.9-.73,1.25-.21,2.65.9,3.42h0Z"/>
  <path class="st0" d="M269.88,382.62c11.22,2.32,20.21,12.51,20.76,24.03.15,3.2,5.15,3.22,5,0-.64-13.63-10.99-26.07-24.43-28.85-1.32-.27-2.7.38-3.08,1.75-.34,1.24.42,2.8,1.75,3.08h0Z"/>
  <path class="st0" d="M218.68,400.9c5.76-14.1,20.74-23.59,35.74-24.32,4.35-.21,8.64.29,12.8,1.57,3.08.94,4.4-3.88,1.33-4.82-16.55-5.05-35.51,1.01-46.93,13.79-3.31,3.7-5.89,7.87-7.76,12.46-.51,1.25.55,2.75,1.75,3.08,1.43.39,2.56-.49,3.08-1.75h0Z"/>
  <path class="st0" d="M273.65,381.09c4.39-2.32,9.76-1.65,14.01.9,2.07,1.24,3.84,2.94,5.06,5.01,1.54,2.63,1.81,5.7,1.86,8.79.06,4.26-.18,8.68,1.51,12.7.52,1.24,1.65,2.14,3.08,1.75,1.17-.32,2.27-1.82,1.75-3.08-1.58-3.77-1.25-7.8-1.33-11.8-.07-3.74-.57-7.45-2.45-10.75-3.2-5.6-9.3-9.13-15.63-9.82-3.58-.39-7.18.3-10.36,1.98-2.85,1.5-.32,5.82,2.52,4.32h0Z"/>
  <path class="st0" d="M281.1,381.36c16.97,2.43,28.82,16.83,34.51,32.1,3.34,8.97,5.12,18.43,6.51,27.87,1.53,10.39,2.6,20.84,3.24,31.32,1.28,20.92.84,41.95-1.34,62.79-.54,5.19-1.19,10.37-1.96,15.53s-1.7,10.28-2.11,15.47c-.74,9.18.63,18.54,6.82,25.71,5.03,5.82,13.45,9.33,20.78,5.75,5.96-2.91,10.4-10.44,8.51-17.08-.48-1.7-1.38-3.18-2.55-4.5-1.59-1.78-4.06-.2-4.27,1.77.04-.36-.11.38-.14.49-.12.4.15-.27-.03.09-.05.11-.11.22-.17.32-.26.43-.5.67-.78.86-.99.68-1.94.94-2.95.99-.32.02-.64.02-.96,0-.13,0-.83-.07-.57-.04-.58-.09-1.43-.32-1.81-.49-1.07-.47-2.02-1.35-2.81-2.58-1.91-2.97-2.33-6.62-2.47-10.07-.19-4.57-.08-9.16.03-13.72.48-18.94,2.46-37.8,3.62-56.71,1.15-18.75,1.45-37.62-1.33-56.25-2.5-16.76-7.37-33.93-17.95-47.47-9.62-12.31-25.25-20.92-41.19-18.84-2.02.26-3.99.67-5.94,1.27-3.06.95-1.76,5.78,1.33,4.82,15.23-4.71,31.2,3.02,40.98,14.69,10.99,13.1,15.59,30.76,18.02,47.33,2.76,18.88,2.15,38.1.92,57.08-1.25,19.21-3.23,38.4-3.52,57.66-.12,7.94-1.03,17.69,4.33,24.28,3.85,4.72,12.41,5.78,16.58.81,1.12-1.33,1.64-2.82,1.83-4.53l-4.27,1.77c1.69,1.9,1.84,4.34,1.07,6.82s-2.67,4.93-4.98,6.34c-2.56,1.56-5.38,1.72-8.43.75-3.24-1.03-6.03-3.38-8.06-6.06-5.46-7.26-5.28-16.65-4.2-25.26.62-4.92,1.5-9.82,2.17-14.73s1.29-10.11,1.78-15.19c1.96-20.3,2.29-40.75.97-61.1-.66-10.2-1.74-20.36-3.2-30.47-1.34-9.26-3.01-18.53-6.12-27.38-5.52-15.69-16.39-30.58-32.87-35.77-1.85-.58-3.74-1-5.66-1.28-1.33-.19-2.69.33-3.08,1.75-.32,1.17.4,2.88,1.75,3.08h0Z"/>
  <path class="st0" d="M298.34,395.05c12.51,12.83,15.97,31.37,18.32,48.46,2.99,21.73,5.68,43.58,7.1,65.48.82,12.65,1.13,25.33.66,38-.12,3.22,4.88,3.21,5,0,.85-22.9-.89-45.79-3.43-68.54-1.24-11.1-2.63-22.19-4.09-33.26-1.21-9.17-2.6-18.36-5.28-27.24-2.95-9.77-7.55-19.08-14.73-26.44-2.25-2.31-5.78,1.23-3.54,3.54h0Z"/>
  <path class="st0" d="M305.95,380.49c18.92,16.14,29.97,39.21,35.24,63.18,6.15,27.95,4.13,56.8.51,84.95-2.24,17.47-5.11,34.85-7.19,52.34-.16,1.34,1.26,2.5,2.5,2.5,1.48,0,2.34-1.15,2.5-2.5,3.75-31.5,10.11-62.79,10.6-94.6.4-26.14-3.61-52.78-15.32-76.39-6.2-12.5-14.67-23.94-25.31-33.02-1.03-.88-2.53-1.01-3.54,0-.9.9-1.03,2.66,0,3.54h0Z"/>
  <path class="st0" d="M272.82,379.69c6.95-2.42,14.25-4.73,21.68-4.61,3.35.05,6.75.67,9.73,2.26s5.53,4.17,7.36,7.16c2.23,3.64,3.66,7.67,5.05,11.68.44,1.28,1.71,2.12,3.08,1.75,1.24-.34,2.19-1.79,1.75-3.08-2.72-7.86-5.87-16.1-13.12-20.88s-15.56-4.44-23.37-2.94c-4.6.88-9.08,2.3-13.49,3.84-1.27.44-2.12,1.71-1.75,3.08.34,1.24,1.79,2.19,3.08,1.75h0Z"/>
  <path class="st0" d="M297.85,376.62c8.57.1,16.34,4.51,22.19,10.55,6.68,6.9,10.6,15.84,13.34,24.93,1.67,5.54,2.94,11.18,4.2,16.82.7,3.14,5.52,1.81,4.82-1.33-4.37-19.57-10.14-41.75-29.3-51.95-4.71-2.51-9.91-3.97-15.26-4.03-3.22-.04-3.22,4.96,0,5h0Z"/>
  <path class="st0" d="M274.47,391.25c18.96,12.28,25.68,36.2,27.05,57.51,1.69,26.21-2.65,53.04,5.03,78.63,3.63,12.1,9.89,23.62,19.62,31.87,1.03.87,2.53,1.01,3.54,0,.9-.9,1.03-2.66,0-3.54-17.96-15.22-22.38-40.05-22.9-62.39-.6-25.93,2.82-52.91-7.22-77.57-4.7-11.55-12.02-21.97-22.6-28.83-2.71-1.75-5.22,2.57-2.52,4.32h0Z"/>
  <path class="st0" d="M293.44,408.85c5.61,17.47,10.25,35.25,13.84,53.25,1.76,8.79,3.23,17.62,4.54,26.49,1.17,7.9,2.31,15.83,4.27,23.58,2.17,8.61,5.42,17.05,10.56,24.34.78,1.1,2.18,1.62,3.42.9,1.09-.64,1.68-2.31.9-3.42-9.13-12.94-11.69-28.91-13.96-44.23-2.62-17.67-5.86-35.2-10.23-52.53-2.52-9.99-5.37-19.89-8.52-29.7-.98-3.05-5.81-1.75-4.82,1.33h0Z"/>
  <path class="st0" d="M333.74,583.33c-15.14-18.52-21.28-42.54-23.48-65.92-2.51-26.62-.02-53.36-.99-80.02-.58-15.75-2.39-31.56-6.99-46.67-.93-3.07-5.76-1.76-4.82,1.33,8.28,27.19,7.19,55.89,6.76,83.97-.39,25.01-.08,50.5,7.21,74.65,3.97,13.14,10.07,25.55,18.78,36.2.86,1.05,2.65.89,3.54,0,1.03-1.03.86-2.49,0-3.54h0Z"/>
  <path class="st0" d="M221.69,383.29c-7.91,4.4-15.3,9.69-22.05,15.72l3.93,3.03c5.71-10.83,16.11-18.77,27.96-21.73,3.34-.83,6.73-1.23,10.17-1.22,3.22.01,3.22-4.99,0-5-13.48-.06-26.79,5.98-35.81,15.97-2.59,2.86-4.84,6.04-6.64,9.45-1.34,2.54,1.8,4.93,3.93,3.03,6.44-5.75,13.49-10.74,21.03-14.93,2.81-1.56.29-5.88-2.52-4.32h0Z"/>
</svg>