<?xml version="1.0" encoding="UTF-8"?>
<svg id="Layer_1" xmlns="http://www.w3.org/2000/svg" version="1.1" viewBox="0 0 595.28 841.89">
  <!-- Generator: Adobe Illustrator 29.6.1, SVG Export Plug-In . SVG Version: 2.1.1 Build 9)  -->
  <defs>
    <style>
      .st0 {
        fill: #231f20;
      }
    </style>
  </defs>
  <path class="st0" d="M-56,281.25c3.22,0,3.22-5,0-5s-3.22,5,0,5h0Z"/>
  <path class="st0" d="M269.13,376.52c-2.21-4.16-7.13-6.02-11.45-7.09-4.72-1.17-9.63-1.37-14.44-.75-9.54,1.24-18.19,5.64-25.45,11.86-3.92,3.36-7.33,7.24-10.41,11.38-.8,1.09-.18,2.79.9,3.42,1.27.74,2.61.19,3.42-.9,9.57-12.9,24.93-23.31,41.68-20.79,2.39.36,4.81.97,7.05,1.9,1.78.74,3.46,1.75,4.38,3.49,1.51,2.84,5.82.32,4.32-2.52h0Z"/>
  <path class="st0" d="M268.01,375c-17.06.25-33.76,7.58-45.43,20.04-2.2,2.35,1.33,5.89,3.54,3.54,10.79-11.51,26.11-18.34,41.89-18.57,3.21-.05,3.22-5.05,0-5h0Z"/>
  <path class="st0" d="M266.06,380.34c-9.04,3.14-16.8,9.18-22.04,17.2-.74,1.13-.23,2.76.9,3.42,1.22.71,2.68.24,3.42-.9,4.49-6.88,11.29-12.2,19.05-14.9,1.27-.44,2.12-1.71,1.75-3.08-.34-1.24-1.79-2.19-3.08-1.75h0Z"/>
  <path class="st0" d="M265.83,383.26c5.46,3.81,7.67,11.32,5.57,17.56-.43,1.28.5,2.73,1.75,3.08,1.37.38,2.64-.46,3.08-1.75,2.85-8.46-.62-18.15-7.87-23.21-1.11-.77-2.78-.2-3.42.9-.73,1.25-.21,2.65.9,3.42h0Z"/>
  <path class="st0" d="M269.88,382.62c11.22,2.32,20.21,12.51,20.76,24.03.15,3.2,5.15,3.22,5,0-.64-13.63-10.99-26.07-24.43-28.85-1.32-.27-2.7.38-3.08,1.75-.34,1.24.42,2.8,1.75,3.08h0Z"/>
  <path class="st0" d="M276.23,379.75c5.49-3.65,12.48-3.43,18.37-.81,6.75,3,11.38,8.7,14.36,15.33,3.26,7.25,4.45,15.38,5.11,23.24.8,9.67.47,19.3-.51,28.95-1.7,16.79-4.06,35.26,6.6,49.75,4.17,5.67,9.92,10.45,16.9,12.1,3.74.89,7.94.99,11.61-.28s6.79-4.1,8.71-7.65,3.01-7.58,3.55-11.56c.58-4.25.31-8.88-2.2-12.52-2.2-3.18-5.81-5.67-9.83-5.39-3.72.26-7.05,3.03-8.1,6.6-.55,1.85-.28,3.65.48,5.39.54,1.24,2.35,1.52,3.42.9,1.28-.75,1.44-2.18.9-3.42-.15-.34-.14-.79-.09-1.12.08-.54.37-1.15.75-1.66.63-.84,1.66-1.54,2.66-1.69,2.85-.41,5.46,2.2,6.49,4.66,1.51,3.64.73,7.93-.23,11.6-.8,3.06-1.94,6.24-4.15,8.58-4.48,4.73-12.35,3.68-17.58.86-5.65-3.05-9.84-8.26-12.6-13.98-3.34-6.94-4.01-14.77-3.83-22.37.21-8.96,1.65-17.84,2.23-26.77s.35-17.88-.78-26.72c-.97-7.59-2.63-15.15-6.14-22-3.23-6.29-8.13-11.75-14.56-14.85-5.96-2.87-13.11-4.02-19.48-1.76-1.62.57-3.16,1.32-4.59,2.27-2.67,1.77-.17,6.11,2.52,4.32h0Z"/>
  <path class="st0" d="M272.83,375.81c-11.2-10-27.44-12.84-41.72-8.77-7.11,2.03-13.8,5.79-18.92,11.15-5.94,6.21-9.73,14.23-11.88,22.48-4.68,17.96-2.14,36.56-3.53,54.84-.69,9.09-2.47,18.31-6.83,26.4-3.56,6.61-9.61,13.37-17.69,13.53-3.35.07-6.88-.91-9.33-3.3-3.01-2.92-3.58-7.43-3.09-11.43.38-3.13,1.72-6.85,4.59-8.51,1.34-.78,2.28-.88,3.53-.33.94.42,2.03,1.45,2.53,2.66-.12-.28.11.44.13.53,0,0,.05.18.03.59s.06-.34-.02.07c-.01.06-.18.53-.08.29-.06.14-.26.36-.4.5-2.27,2.28,1.26,5.82,3.54,3.54,3.02-3.03,2.15-7.46-.51-10.4-2.83-3.13-7.11-3.9-10.85-2s-6.04,6.03-6.99,10.01c-1.13,4.73-.89,10.08,1.38,14.44,3.98,7.64,14.23,10.05,21.91,7.15,8.97-3.39,14.65-11.68,18.15-20.23,7.61-18.58,4.65-39.13,5.71-58.66.9-16.64,5.16-35.25,20.49-44.45,12.63-7.58,29.63-7.75,42.11.23,1.49.95,2.88,2.01,4.19,3.19,2.39,2.14,5.94-1.39,3.54-3.54h0Z"/>
  <path class="st0" d="M271.19,382.5c-5.65-9.41-15.72-15.34-26.42-17.09-11.37-1.86-22.82.65-32.42,7.02s-17.68,16.63-22.49,27.61c-5.76,13.13-7.63,27.54-7.68,41.78-.03,8.09.67,16.11,1.16,24.17.43,7.14.45,14.71-3.45,20.99-1.7,2.74,2.62,5.25,4.32,2.52,3.44-5.53,4.36-12.08,4.32-18.49-.04-6.77-.89-13.52-1.17-20.28-.59-14.15.09-28.54,4.52-42.09,6.69-20.48,24.09-39.84,47.19-38.84,10.97.47,22.03,5.59,27.81,15.22,1.66,2.76,5.98.24,4.32-2.52h0Z"/>
  <path class="st0" d="M287.46,377.13c7.2-4.48,16.16-4.64,23.93-1.53,3.83,1.53,7.34,3.99,10.07,7.11,3.41,3.9,5.11,8.93,6.16,13.93,1.29,6.13,1.89,12.44,2.47,18.67.61,6.53,1,13.07,1.12,19.63.24,13.1-.62,26.22-2.97,39.12-1.24,6.78-2.78,13.98-.74,20.77,1.67,5.56,5.61,10.59,11.37,12.18,3.11.86,4.43-3.97,1.33-4.82-4.51-1.24-7.2-5.57-8.2-9.91-1.42-6.1.31-12.54,1.36-18.56,2.3-13.2,3.14-26.62,2.83-40-.15-6.63-.58-13.26-1.23-19.87s-1.26-12.91-2.65-19.2c-1.21-5.45-3.29-10.67-6.89-14.99-2.84-3.42-6.58-6.16-10.61-8-9.45-4.31-20.88-4.43-29.86,1.16-2.73,1.7-.22,6.02,2.52,4.32h0Z"/>
  <path class="st0" d="M283.02,381.2c8.46-.27,16.1,4.96,20.72,11.77,5.61,8.26,7.06,18.54,7.43,28.3.43,11.22-.15,22.52-1.47,33.66-1.18,10.01-3.44,19.83-4.88,29.8-1.3,9.03-2.04,18.4.23,27.35,1.07,4.2,2.87,8.3,5.43,11.81,2.75,3.76,6.2,6.79,10.03,9.42,7.43,5.1,16.05,8.55,22.46,15.05s10.68,15.45,10.7,24.55c0,4.08-.94,8.52-3.73,11.65-2.34,2.64-5.84,4.03-9.3,3.85-1.46-.08-3.07-.57-4.3-1.49-1.31-.99-1.77-1.87-2.1-3.4-.09-.41-.11-1.1-.05-1.86.02-.35.22-1.28.45-1.97.39-1.13,1.11-2.26,2.14-3.11.35-.29-.46.27.19-.13.14-.09.28-.17.42-.26s.29-.16.44-.22c-.36.15.03,0,.09-.02.09-.03,1-.22.56-.16.21-.03.43-.02.64-.03.09,0,.64.04.26-.01,1.34.18,2.68-.32,3.08-1.75.32-1.17-.4-2.89-1.75-3.08-4.09-.57-7.66,1.34-9.76,4.89-1.93,3.26-2.41,7.45-.91,10.96,3.83,8.93,16.39,7.85,22.51,2.25,7.57-6.93,7.08-19.08,3.98-27.98-1.72-4.94-4.3-9.48-7.62-13.52s-7.13-7.02-11.36-9.72c-7.81-4.99-17.12-8.75-22.78-16.43-5.57-7.55-6.6-17.07-6.1-26.18.56-10.09,2.94-19.94,4.55-29.89,1.96-12.13,3-24.41,3.02-36.7.02-11.12-.62-22.56-5.28-32.83-3.95-8.71-11.58-16.34-21.01-18.78-2.27-.59-4.64-.85-6.99-.78-3.21.1-3.22,5.1,0,5h0Z"/>
  <path class="st0" d="M312.15,482.45c-1.97,6.31.21,13.14,4.01,18.31,3.88,5.27,9.06,9.33,13.66,13.93,8.45,8.43,15.93,18.12,20.62,29.16,2.61,6.14,4.25,12.71,4.62,19.38.17,3.2,5.18,3.22,5,0-.67-12.23-5.19-23.83-11.85-34.03-3.38-5.17-7.26-10.02-11.46-14.54s-8.91-8.43-13.17-12.85c-4.55-4.72-8.74-11.23-6.61-18.04.96-3.08-3.86-4.4-4.82-1.33h0Z"/>
  <path class="st0" d="M198.35,470.58c-1.38,25.3-14.63,47.86-20.99,71.97-3.49,13.24-4.76,27.14-3.33,40.78.65,6.22,1.93,12.52,5.16,17.96,2.89,4.87,7.38,8.69,12.82,10.39,2.96.93,6.18,1.11,9.21.38.73-.17,1.49-.39,2.17-.73,1.05-.52,1.44-1.42,1.82-2.47.45-1.25.65-2.64.62-3.96-.14-5.57-4.09-11.1-9.71-12.21-1.32-.26-2.7.38-3.08,1.75-.34,1.23.42,2.81,1.75,3.08,4.43.87,7.4,6.29,5.48,10.28l1.49-1.15c-3.85,1.51-7.93.88-11.48-1.13-3.84-2.18-6.53-5.67-8.28-9.68-1.9-4.38-2.69-9.23-3.11-13.96-.5-5.66-.56-11.36-.19-17.03.71-10.75,3.21-21.17,6.61-31.36s7.18-19.35,10.57-29.1c3.8-10.94,6.83-22.19,7.47-33.8.18-3.22-4.82-3.21-5,0h0Z"/>
  <path class="st0" d="M196.18,476.33c-9.32,14.8-16.68,30.84-21.85,47.54-2.55,8.25-4.57,16.67-6.02,25.18-1.31,7.66-2.55,15.58-1.97,23.37s3.24,15.93,10.02,20.82c1.1.79,2.78.19,3.42-.9.74-1.26.2-2.63-.9-3.42-4.99-3.6-6.96-9.91-7.49-15.79-.65-7.23.38-14.54,1.55-21.67,2.7-16.38,7.46-32.47,14.21-47.64,3.84-8.64,8.31-16.98,13.35-24.98,1.72-2.73-2.6-5.24-4.32-2.52h0Z"/>
  <path class="st0" d="M181.42,498.57c-5.18,7.93-10.2,16-15.59,23.79-2.03,2.93-4.5,6.06-7.88,7.49-2.53,1.07-5.92,1.23-8.16-.51-1.15-.89-1.58-2.01-1.58-3.2,0-.44.16-1.2.29-1.46.27-.55.58-.82.9-.93,1.27-.45,2.12-1.71,1.75-3.08-.34-1.23-1.8-2.2-3.08-1.75-4.08,1.44-5.72,6.04-4.43,10.02,1.39,4.28,5.77,6.53,10.05,6.67,10.59.34,16.25-10.36,21.23-17.99,3.61-5.51,7.21-11.02,10.82-16.54,1.77-2.7-2.56-5.21-4.32-2.52h0Z"/>
  <path class="st0" d="M204.09,473.07v-31.33c0-3.22-5-3.22-5,0v31.33c0,3.22,5,3.22,5,0h0Z"/>
</svg>