<?xml version="1.0" encoding="UTF-8"?>
<svg id="Layer_1" xmlns="http://www.w3.org/2000/svg" version="1.1" viewBox="0 0 595.28 841.89">
  <!-- Generator: Adobe Illustrator 29.6.1, SVG Export Plug-In . SVG Version: 2.1.1 Build 9)  -->
  <defs>
    <style>
      .st0 {
        fill: #231f20;
      }
    </style>
  </defs>
  <path class="st0" d="M-56,281.25c3.22,0,3.22-5,0-5s-3.22,5,0,5h0Z"/>
  <path class="st0" d="M269.13,376.52c-2.21-4.16-7.13-6.02-11.45-7.09-4.72-1.17-9.63-1.37-14.44-.75-9.54,1.24-18.19,5.64-25.45,11.86-3.92,3.36-7.33,7.24-10.41,11.38-.8,1.09-.18,2.79.9,3.42,1.27.74,2.61.19,3.42-.9,9.57-12.9,24.93-23.31,41.68-20.79,2.39.36,4.81.97,7.05,1.9,1.78.74,3.46,1.75,4.38,3.49,1.51,2.84,5.82.32,4.32-2.52h0Z"/>
  <path class="st0" d="M268.01,375c-17.06.25-33.76,7.58-45.43,20.04-2.2,2.35,1.33,5.89,3.54,3.54,10.79-11.51,26.11-18.34,41.89-18.57,3.21-.05,3.22-5.05,0-5h0Z"/>
  <path class="st0" d="M266.06,380.34c-9.04,3.14-16.8,9.18-22.04,17.2-.74,1.13-.23,2.76.9,3.42,1.22.71,2.68.24,3.42-.9,4.49-6.88,11.29-12.2,19.05-14.9,1.27-.44,2.12-1.71,1.75-3.08-.34-1.24-1.79-2.19-3.08-1.75h0Z"/>
  <path class="st0" d="M265.83,383.26c5.46,3.81,7.67,11.32,5.57,17.56-.43,1.28.5,2.73,1.75,3.08,1.37.38,2.64-.46,3.08-1.75,2.85-8.46-.62-18.15-7.87-23.21-1.11-.77-2.78-.2-3.42.9-.73,1.25-.21,2.65.9,3.42h0Z"/>
  <path class="st0" d="M269.88,382.62c11.22,2.32,20.21,12.51,20.76,24.03.15,3.2,5.15,3.22,5,0-.64-13.63-10.99-26.07-24.43-28.85-1.32-.27-2.7.38-3.08,1.75-.34,1.24.42,2.8,1.75,3.08h0Z"/>
  <path class="st0" d="M272.32,378.65c11.53-3.97,23.6-5.97,35.79-5.91,3.22.02,3.22-4.98,0-5-12.6-.06-25.2,1.99-37.12,6.09-1.28.44-2.12,1.72-1.75,3.08.34,1.24,1.79,2.19,3.08,1.75h0Z"/>
  <path class="st0" d="M266.86,354.03c-.68,7.35-.3,14.74,1.01,22,.24,1.33,1.86,2.08,3.08,1.75,1.4-.38,1.99-1.74,1.75-3.08-1.23-6.82-1.47-13.78-.83-20.67.12-1.35-1.24-2.5-2.5-2.5-1.46,0-2.38,1.15-2.5,2.5h0Z"/>
  <path class="st0" d="M271.13,379.55c13.92-2.01,30.01-1.2,39.87,10.21,2.22,2.57,3.83,5.6,4.7,8.87.83,3.11,5.65,1.79,4.82-1.33-1.88-7.06-6.67-12.87-12.67-16.9-6.73-4.53-14.85-6.41-22.88-6.7-5.08-.18-10.15.3-15.17,1.03-1.34.19-2.07,1.89-1.75,3.08.39,1.44,1.73,1.94,3.08,1.75h0Z"/>
</svg>