<?xml version="1.0" encoding="UTF-8"?>
<svg id="Layer_1" xmlns="http://www.w3.org/2000/svg" version="1.1" viewBox="0 0 595.28 841.89">
  <!-- Generator: Adobe Illustrator 29.6.1, SVG Export Plug-In . SVG Version: 2.1.1 Build 9)  -->
  <defs>
    <style>
      .st0 {
        fill: #231f20;
      }
    </style>
  </defs>
  <path class="st0" d="M-56,281.25c3.22,0,3.22-5,0-5s-3.22,5,0,5h0Z"/>
  <path class="st0" d="M269.13,376.52c-2.21-4.16-7.13-6.02-11.45-7.09-4.72-1.17-9.63-1.37-14.44-.75-9.54,1.24-18.19,5.64-25.45,11.86-3.92,3.36-7.33,7.24-10.41,11.38-.8,1.09-.18,2.79.9,3.42,1.27.74,2.61.19,3.42-.9,9.57-12.9,24.93-23.31,41.68-20.79,2.39.36,4.81.97,7.05,1.9,1.78.74,3.46,1.75,4.38,3.49,1.51,2.84,5.82.32,4.32-2.52h0Z"/>
  <path class="st0" d="M268.01,375c-17.06.25-33.76,7.58-45.43,20.04-2.2,2.35,1.33,5.89,3.54,3.54,10.79-11.51,26.11-18.34,41.89-18.57,3.21-.05,3.22-5.05,0-5h0Z"/>
  <path class="st0" d="M266.06,380.34c-9.04,3.14-16.8,9.18-22.04,17.2-.74,1.13-.23,2.76.9,3.42,1.22.71,2.68.24,3.42-.9,4.49-6.88,11.29-12.2,19.05-14.9,1.27-.44,2.12-1.71,1.75-3.08-.34-1.24-1.79-2.19-3.08-1.75h0Z"/>
  <path class="st0" d="M265.83,383.26c5.46,3.81,7.67,11.32,5.57,17.56-.43,1.28.5,2.73,1.75,3.08,1.37.38,2.64-.46,3.08-1.75,2.85-8.46-.62-18.15-7.87-23.21-1.11-.77-2.78-.2-3.42.9-.73,1.25-.21,2.65.9,3.42h0Z"/>
  <path class="st0" d="M269.88,382.62c11.22,2.32,20.21,12.51,20.76,24.03.15,3.2,5.15,3.22,5,0-.64-13.63-10.99-26.07-24.43-28.85-1.32-.27-2.7.38-3.08,1.75-.34,1.24.42,2.8,1.75,3.08h0Z"/>
  <path class="st0" d="M256.09,375.7c-12.94,6.67-24.95,15.17-35.56,25.13-3.03,2.85-5.95,5.82-8.74,8.9l3.93.51c-3.23-6.98-2.64-15.55,1.38-22.08.61-1,1.8-2.89,2.99-2.67-.02,0,.36.02.24.04.24.19.3.25.16.18-.08-.32-.11-.33-.11-.01-.28.29-.48,1.36-.65,1.76-.22.52-.44,1.05-.65,1.57-1.9,4.57-3.79,9.13-5.69,13.7h4.82c-2.71-6.59.63-13.73,5.73-18.13,6.06-5.24,14.49-7,22.08-8.74l-2.43-4.18c-10.3,7.98-19.88,16.84-28.65,26.48l4.27,1.77c-.06-6.95,4.66-12.95,10.36-16.48,7.11-4.41,15.72-5.59,23.84-6.79l-2.82-3.67c-2.42,5.35-7,9.07-10.62,13.56-3.93,4.88-6.95,10.97-5.34,17.35.38,1.52,2.33,2.35,3.67,1.49,10.1-6.43,19.71-13.63,28.73-21.5,2.14-1.87-.64-5.43-3.03-3.93-9.26,5.84-18.52,11.68-27.78,17.53l3.03,3.93c7.63-7.32,15.27-14.64,22.9-21.96,1.41-1.35.64-3.62-1.1-4.18-7.74-2.48-16-3.28-24.06-2.28l1.26,4.66c3.47-1.55,7.27-2.04,11.03-1.71,1.35.12,2.5-1.23,2.5-2.5,0-1.45-1.15-2.38-2.5-2.5-4.69-.41-9.28.49-13.56,2.39-2.2.98-1.16,4.96,1.26,4.66,7.68-.95,15.37-.26,22.73,2.1l-1.1-4.18-22.9,21.96c-2.03,1.95.61,5.46,3.03,3.93,9.26-5.84,18.52-11.68,27.78-17.53l-3.03-3.93c-8.71,7.6-17.97,14.51-27.72,20.72l3.67,1.49c-1.31-5.23,2.09-10.32,5.39-14.06,3.62-4.11,7.77-7.93,10.07-13,.95-2.1-.6-4-2.82-3.67-8.91,1.32-18.36,2.75-25.99,7.91-6.72,4.54-11.96,11.82-11.88,20.19.02,2.08,2.77,3.41,4.27,1.77,8.76-9.64,18.35-18.5,28.65-26.48.86-.67.9-2.16.39-3.03-.57-.98-1.74-1.4-2.82-1.15-6.88,1.58-13.93,3.25-20.03,6.94-5.65,3.42-10.27,8.77-11.88,15.28-.88,3.56-.8,7.38.6,10.8.97,2.36,3.84,2.35,4.82,0,1.83-4.42,3.67-8.83,5.5-13.25.87-2.11,2.19-4.4,1.47-6.74-.64-2.08-2.67-3.34-4.75-3.54-4.25-.41-7.04,3.69-8.71,7.03-1.83,3.67-2.85,7.68-3.04,11.78-.21,4.65.77,9.23,2.72,13.44.66,1.43,2.92,1.62,3.93.51,12.33-13.58,26.99-24.84,43.29-33.25,2.86-1.48.33-5.79-2.52-4.32h0Z"/>
  <path class="st0" d="M268.18,382.87c-1.05,8.11,0,16.47,3.01,24.06.41,1.04,1.22,1.84,2.41,1.84,1.01,0,2.24-.77,2.41-1.84,1.74-10.69-3.55-21.95-13.23-27.04-2.85-1.5-5.38,2.82-2.52,4.32,7.55,3.97,12.31,12.88,10.93,21.4h4.82c-2.88-7.25-3.84-15-2.83-22.73.17-1.34-1.27-2.5-2.5-2.5-1.5,0-2.33,1.15-2.5,2.5h0Z"/>
  <path class="st0" d="M262.46,383.54c11.29,3.01,21.37,10.04,27.98,19.69.76,1.11,2.2,1.61,3.42.9,1.1-.64,1.66-2.3.9-3.42-7.35-10.73-18.39-18.63-30.97-21.98-3.11-.83-4.44,3.99-1.33,4.82h0Z"/>
  <path class="st0" d="M271.24,384.02c7.18-1.39,14.43,1.25,20.11,5.59,6.19,4.73,10.43,11.4,12.93,18.71,2.87,8.38,3.77,17.24,4.27,26.03.56,9.68.92,19.37,1.37,29.06.52,11.27,1.04,22.53,1.56,33.8.07,1.54,1.55,2.94,3.16,2.41,2.23-.74,3.5-2.62,3.94-4.87.5-2.54.53-5.22.68-7.8.34-5.43.51-10.87.53-16.32.03-10.97-.58-21.93-1.84-32.83-.62-5.39-1.39-10.76-2.32-16.1s-1.86-10.29-3.82-15.14c-3.21-7.93-8.84-14.44-15.84-19.3-7.89-5.49-17.2-8.63-26.67-9.9-1.34-.18-2.5,1.28-2.5,2.5,0,1.5,1.16,2.32,2.5,2.5,14.64,1.95,29.75,9.72,36.65,23.3,2.07,4.07,3.18,8.55,4.06,13,.97,4.9,1.74,9.84,2.4,14.78,1.34,10.15,2.11,20.37,2.32,30.6.12,5.68.06,11.37-.17,17.06-.12,2.92-.28,5.84-.5,8.76-.08,1.17-.11,2.44-.31,3.55-.06.3-.13.71-.23.96-.07.19-.23.35-.3.53.02-.05.02-.1.09-.12l3.16,2.41c-.95-20.66-1.74-41.33-2.88-61.97-.96-17.52-3.67-36.95-18.18-48.74-7.2-5.85-16.24-9.11-25.52-7.31-1.33.26-2.08,1.85-1.75,3.08.38,1.39,1.75,2,3.08,1.75h0Z"/>
  <path class="st0" d="M269.31,382.53c8.82.45,17.47,3.07,25.07,7.55s14.54,10.56,16.82,19.33c1.25,4.82,1.81,9.86,2.52,14.78s1.43,10.3,2.06,15.47c1.26,10.44,2.28,20.92,3.06,31.41.87,11.8,1.44,23.63,1.7,35.46.05,2.05,2.05,2.91,3.76,2.16,4.17-1.83,4.87-7.02,4.57-11.04-.44-5.9-1.31-11.81-2.04-17.68-1.49-12.03-3.16-24.04-5.01-36.02-.92-5.94-1.86-11.87-2.89-17.78-.91-5.24-1.93-10.49-3.58-15.56-3.1-9.52-8.52-17.77-16.88-23.43s-19.56-8.31-29.96-6.63l3.16,2.41c.05-1.12.48-1.99,1.46-2.86.38-.33.95-.68,1.59-1,.57-.28,1.31-.52,2.07-.71,3.26-.82,6.39-.31,9.63.74,7.11,2.31,13.29,7.36,17.24,13.68,2.29,3.67,3.79,7.7,4.45,11.97.21,1.34,1.88,2.07,3.08,1.75,1.43-.39,1.95-1.74,1.75-3.08-1.37-8.85-6.39-17.09-13.36-22.67-6.6-5.28-15.84-9.47-24.4-7.13-4.49,1.23-8.28,4.41-8.49,9.31-.08,1.77,1.65,2.66,3.16,2.41,8.14-1.31,16.68.55,23.77,4.66,7.68,4.45,13.1,11.39,16.15,19.68,3.61,9.79,4.84,20.42,6.47,30.67,1.78,11.2,3.4,22.43,4.85,33.68.82,6.39,1.6,12.79,2.32,19.19.27,2.42.67,4.88.49,7.33-.06.74-.28,1.79-.54,2.34-.41.85-.7,1.06-1.57,1.44l3.76,2.16c-.48-21.86-2.01-43.69-4.58-65.4-.65-5.44-1.36-10.88-2.13-16.31-.73-5.14-1.35-10.36-2.49-15.44s-3.15-9.14-6.33-12.93c-2.99-3.57-6.73-6.56-10.6-9.12-8.93-5.89-19.42-9.25-30.09-9.8-3.22-.17-3.21,4.84,0,5h0Z"/>
  <path class="st0" d="M279.99,380.66c8.12-1.16,16.29,2.7,22.14,8.1,6.62,6.11,10.63,14.44,13.53,22.84,3.21,9.32,5.57,18.98,7.83,28.57,2.38,10.12,4.43,20.32,6.14,30.58,1.91,11.47,3.39,23,4.45,34.58.11,1.24.86,2.3,2.17,2.46,1.16.14,2.49-.55,2.74-1.79,2.13-10.44-3.4-19.97-7.11-29.35s-6.75-19.49-8.85-29.59c-1.17-5.63-2.06-11.3-2.67-17.02-.14-1.34-1.05-2.5-2.5-2.5-1.29,0-2.58,1.15-2.5,2.5,1.15,19.2,5.26,38.21,12.29,56.11,2.02,5.15,4.27,10.22,6.74,15.18.93,1.87,4.16,1.48,4.57-.6,1.31-6.71-.53-13.4-2.33-19.85s-3.74-12.3-5.84-18.37c-4.14-11.99-8.61-23.88-11.84-36.15-1.82-6.89-3.24-13.9-3.94-21-.13-1.34-1.06-2.5-2.5-2.5-1.25,0-2.63,1.15-2.5,2.5,2.49,25.51,13.49,48.85,20.73,73.16,1,3.35,1.96,6.73,2.74,10.14s1.36,7.17.66,10.75l4.57-.6c-8.31-16.69-13.95-34.67-16.73-53.11-.78-5.19-1.31-10.42-1.62-15.66h-5c1.08,10.17,2.95,20.24,5.7,30.09,1.35,4.85,2.91,9.65,4.66,14.37s3.92,9.44,5.8,14.2c1.99,5.03,3.74,10.52,2.64,15.97l4.91.66c-1.97-21.57-5.37-43.02-10.22-64.13-2.34-10.17-4.82-20.42-8.17-30.31-3.06-9.04-7.26-18.06-14.16-24.83-7.38-7.25-17.45-11.7-27.87-10.22-1.34.19-2.07,1.89-1.75,3.08.4,1.44,1.73,1.94,3.08,1.75h0Z"/>
  <path class="st0" d="M273.61,378.94c8.15,1.62,15.99-2.66,24.11-1.24,6.96,1.22,13.02,5.31,17.6,10.58,5.07,5.82,8.02,13.21,9.95,20.6,2.14,8.19,3.23,16.67,4.14,25.07,1.11,10.31,1.7,20.68,1.77,31.06.02,3.23,4.84,3.2,5,0,.68-13.86-.61-27.82-3.82-41.31-1.55-6.52-3.49-12.97-6.2-19.1s-6.15-11.15-10.47-15.87c-4.76-5.2-10.26-9.64-15.8-13.96-1.06-.83-2.5-1.04-3.54,0-.86.86-1.07,2.7,0,3.54,9.53,7.43,18.88,15.33,24.33,26.35,2.83,5.72,4.7,11.9,6.28,18.07,1.65,6.47,2.87,13.06,3.58,19.71.8,7.5,1,15.06.63,22.59h5c-.07-9.48-.56-18.95-1.49-28.37s-1.96-17.99-4.02-26.75c-1.89-8.09-4.86-16.2-9.96-22.85-4.65-6.05-10.87-10.99-18.21-13.31-4.32-1.37-8.74-1.53-13.2-.91-4.71.66-9.58,2.26-14.36,1.3-1.32-.26-2.7.38-3.08,1.75-.34,1.23.42,2.81,1.75,3.08h0Z"/>
  <path class="st0" d="M330.71,421.69c1.58,19.15,2.61,38.34,3.08,57.55.13,5.46.22,10.93.26,16.39.03,3.22,5.03,3.22,5,0-.15-19.21-.86-38.42-2.12-57.59-.36-5.45-.77-10.9-1.22-16.35-.11-1.35-1.07-2.5-2.5-2.5-1.27,0-2.61,1.15-2.5,2.5h0Z"/>
  <path class="st0" d="M308.46,436.74c-.59,17.85-.85,35.7-.76,53.56.09,17.86.51,35.71,1.27,53.55.43,10.12.98,20.24,1.63,30.35.21,3.24,4.72,3.19,5,0,2.83-32.28,6.53-64.48,11.15-96.55,1.31-9.13,2.7-18.26,4.16-27.37l-4.91-.66c-.47,17.51-.23,35.03.45,52.53.68,17.43,1.79,34.84,3.06,52.23.72,9.86,1.49,19.71,2.26,29.57l4.91-.66c-3.69-25.64-7.39-51.28-11.08-76.91-1.04-7.23-2.08-14.46-3.12-21.69-.35-2.41-4.42-2.36-4.82,0-3.74,22.05-7.52,44.32-7.11,66.77.12,6.4.62,12.78,1.48,19.12.16,1.21,1.66,1.95,2.74,1.79,1.17-.18,2.23-1.19,2.17-2.46-1.24-23.84-.45-47.78,2.39-71.49.8-6.65,1.77-13.29,2.89-19.89h-4.82c3.71,26.02,5.93,52.25,6.69,78.52.21,7.41.31,14.81.29,22.22l4.91-.66c-5-16.67-7.88-33.92-8.48-51.32-.17-4.92-.16-9.84.02-14.75h-5c-.06,11.47,1.94,22.94,5.94,33.69.99,2.65,4.69,2.21,4.91-.66,1.53-19.85,3.06-39.7,4.58-59.54l-4.91.66c5.37,21.76,9.11,43.91,11.27,66.22.61,6.28,1.09,12.57,1.47,18.86.19,3.2,4.86,3.23,5,0,.76-18.01-.51-36.07-3.73-53.8-.91-4.99-1.98-9.95-3.19-14.87-.71-2.87-4.7-2.03-4.91.66-1.34,17.32-.6,34.73,2.08,51.89l4.82-1.33c-1.65-8.93-4.59-17.6-8.66-25.72-2.03-4.04-4.38-7.88-6.91-11.62s-5.01-7.44-6.26-11.79-1.52-8.91-1.77-13.42c-.27-4.93-.41-9.86-.43-14.79-.05-9.86.39-19.73,1.31-29.55,1.03-10.97,2.68-21.87,4.92-32.66.27-1.32-.39-2.7-1.75-3.08-1.24-.34-2.8.42-3.08,1.75-4.07,19.62-6.24,39.63-6.4,59.66-.04,4.93.04,9.87.24,14.79.2,4.88.41,9.81,1.23,14.63s2.56,9.03,5.09,13.07,5.07,7.47,7.3,11.41c5.03,8.9,8.49,18.58,10.35,28.63.25,1.33,1.85,2.08,3.08,1.75,1.42-.39,1.95-1.74,1.75-3.08-2.6-16.71-3.2-33.71-1.9-50.56l-4.91.66c4.24,17.15,6.57,34.72,6.92,52.38.1,4.99.03,9.98-.18,14.97h5c-1.35-22.66-4.18-45.24-8.67-67.49-1.28-6.34-2.7-12.65-4.25-18.93-.71-2.87-4.7-2.03-4.91.66-1.53,19.85-3.06,39.7-4.58,59.54l4.91-.66c-3.85-10.37-5.82-21.3-5.76-32.37.02-3.23-4.88-3.21-5,0-.65,17.74.99,35.57,4.84,52.9,1.09,4.88,2.36,9.71,3.79,14.5.8,2.67,4.9,2.2,4.91-.66.07-26.51-1.35-53.02-4.26-79.36-.84-7.59-1.81-15.16-2.89-22.71-.34-2.42-4.42-2.36-4.82,0-4.05,23.84-6.11,48.01-6.03,72.19.02,6.84.22,13.69.57,20.52l4.91-.66c-2.92-21.55-.68-43.47,2.62-64.84.95-6.14,1.98-12.26,3.02-18.39h-4.82c3.69,25.64,7.39,51.28,11.08,76.91,1.04,7.23,2.08,14.46,3.12,21.69.4,2.77,5.13,2.14,4.91-.66-1.36-17.47-2.73-34.95-3.81-52.44s-1.88-34.82-2.12-52.26c-.14-9.88-.1-19.76.17-29.63.07-2.75-4.46-3.5-4.91-.66-5.19,32.44-9.48,65.02-12.86,97.69-.95,9.18-1.82,18.36-2.63,27.56h5c-1.15-17.82-1.96-35.66-2.43-53.51-.47-17.85-.6-35.71-.39-53.56.12-10.13.35-20.26.68-30.39.11-3.22-4.89-3.21-5,0h0Z"/>
</svg>