<?xml version="1.0" encoding="UTF-8"?>
<svg id="Layer_1" xmlns="http://www.w3.org/2000/svg" version="1.1" viewBox="0 0 595.28 841.89">
  <!-- Generator: Adobe Illustrator 29.6.1, SVG Export Plug-In . SVG Version: 2.1.1 Build 9)  -->
  <defs>
    <style>
      .st0 {
        fill: #231f20;
      }
    </style>
  </defs>
  <path class="st0" d="M-56,281.25c3.22,0,3.22-5,0-5s-3.22,5,0,5h0Z"/>
  <path class="st0" d="M269.13,376.52c-2.21-4.16-7.13-6.02-11.45-7.09-4.72-1.17-9.63-1.37-14.44-.75-9.54,1.24-18.19,5.64-25.45,11.86-3.92,3.36-7.33,7.24-10.41,11.38-.8,1.09-.18,2.79.9,3.42,1.27.74,2.61.19,3.42-.9,9.57-12.9,24.93-23.31,41.68-20.79,2.39.36,4.81.97,7.05,1.9,1.78.74,3.46,1.75,4.38,3.49,1.51,2.84,5.82.32,4.32-2.52h0Z"/>
  <path class="st0" d="M268.01,375c-17.06.25-33.76,7.58-45.43,20.04-2.2,2.35,1.33,5.89,3.54,3.54,10.79-11.51,26.11-18.34,41.89-18.57,3.21-.05,3.22-5.05,0-5h0Z"/>
  <path class="st0" d="M266.06,380.34c-9.04,3.14-16.8,9.18-22.04,17.2-.74,1.13-.23,2.76.9,3.42,1.22.71,2.68.24,3.42-.9,4.49-6.88,11.29-12.2,19.05-14.9,1.27-.44,2.12-1.71,1.75-3.08-.34-1.24-1.79-2.19-3.08-1.75h0Z"/>
  <path class="st0" d="M265.83,383.26c5.46,3.81,7.67,11.32,5.57,17.56-.43,1.28.5,2.73,1.75,3.08,1.37.38,2.64-.46,3.08-1.75,2.85-8.46-.62-18.15-7.87-23.21-1.11-.77-2.78-.2-3.42.9-.73,1.25-.21,2.65.9,3.42h0Z"/>
  <path class="st0" d="M269.88,382.62c11.22,2.32,20.21,12.51,20.76,24.03.15,3.2,5.15,3.22,5,0-.64-13.63-10.99-26.07-24.43-28.85-1.32-.27-2.7.38-3.08,1.75-.34,1.24.42,2.8,1.75,3.08h0Z"/>
  <path class="st0" d="M255.9,377.42c-13.46,4.41-25.67,12.49-34.92,23.22-2.64,3.07-5.06,6.34-7.2,9.77l4.57.6c-1.87-7.53,2.77-14.66,8.42-19.19,3.06-2.46,6.59-4.35,10.11-6.05,3.91-1.89,7.92-3.54,12.03-4.95,4.75-1.63,9.6-2.93,14.52-3.92,2.32-.47,2.17-3.42.6-4.57-6.74-4.94-15.43-6.08-23.52-4.7s-15.97,5.98-22.35,11.52c-3.67,3.2-6.98,6.79-10.11,10.51-1.87,2.23.42,5.1,3.03,3.93,15.3-6.86,31.82-11.05,48.53-12.34,2.31-.18,3.61-3.41,1.26-4.66-10.77-5.72-23.98-5.72-34.75,0-2.17,1.16-1.2,4.75,1.26,4.66,11.15-.43,22.29-.86,33.44-1.29,3.22-.12,3.21-4.84,0-5-15.11-.75-29.03,12.87-28.72,27.97.05,2.22,2.67,3.22,4.27,1.77,6.18-5.63,12.9-10.62,20.09-14.9,1.83-1.08,3.68-2.12,5.56-3.11.91-.48,1.82-.95,2.74-1.4.41-.2.85-.38,1.24-.61.04-.02.43-.13.43-.14-.29.05-.52-.03-.68-.23-.16-.18-.18-.18-.06,0-.03.14.2.55.25.73.16.56.31,1.12.46,1.68.33,1.2.65,2.41.98,3.61.61,2.25,1.22,4.49,1.83,6.74,1.44,5.29,2.88,10.59,4.32,15.88.64,2.36,4.19,2.4,4.82,0,2.67-10.15,1.32-21.06-3.7-30.27l-3.42,3.42c8.61,5.89,16.3,13.17,22.61,21.49.62.82,1.41,1.36,2.49,1.19.88-.13,1.94-.82,2.08-1.79,1.05-7.55-2.34-14.78-7.87-19.85s-13.25-8.09-20.49-10.77v4.82c7.32-1.72,15.32-1.03,22.19,2.11s12.27,8.19,15.9,14.65c2.01,3.58,3.33,7.46,4.01,11.51.47,2.77,5.06,2.13,4.91-.66-.32-5.94-3.03-11.32-7.05-15.63-4.31-4.62-9.94-7.63-15.77-9.88-3.03-1.17-6.14-2.12-9.25-3.03s-6.52-1.94-9.86-2.56-6.99-.89-10.5-.29c-3.32.56-6.41,2.09-9.25,3.85-6.84,4.25-13.44,8.95-20.13,13.44l3.42,3.42c5.75-10.12,16.74-16.99,28.32-18.04,3.33-.3,6.69-.17,9.97.5,1.22.25,2.47-.25,2.95-1.45.43-1.08.11-2.56-1.02-3.12-5.21-2.56-10.81-4-16.62-4.2l1.26,4.66c9.98-7.63,26.12-5.8,33.6,4.64l3.93-3.03c-7.42-8.96-20.88-11.16-31.31-6.68-2.93,1.26-5.59,3.1-7.79,5.4s1.31,5.87,3.54,3.54c8.48-8.87,24.24-8.14,32.03,1.28,1.79,2.16,5.58-.72,3.93-3.03-7-9.78-20.12-13.94-31.64-10.75-3.17.88-6.19,2.32-8.8,4.32-1.9,1.45-1.4,4.56,1.26,4.66,4.89.17,9.7,1.36,14.1,3.52l1.93-4.57c-13.21-2.7-27.28,1.63-37,10.92-2.73,2.61-5.08,5.63-6.94,8.91-1.18,2.08,1.27,4.86,3.42,3.42,5.57-3.73,11.14-7.47,16.72-11.2,2.54-1.7,5.11-3.53,7.97-4.64s5.78-1.3,8.78-1.03,6.17,1.14,9.17,1.99,5.86,1.67,8.75,2.63c5.35,1.78,10.79,4.04,15.09,7.79s7.5,8.57,7.81,14.23l4.91-.66c-2.82-16.77-16.63-30.12-33.45-32.44-4.95-.68-9.93-.47-14.8.68-2.58.61-2.16,4.02,0,4.82,6.16,2.28,12.65,4.61,17.7,8.96,4.34,3.74,8.01,9.54,7.18,15.51l4.57-.6c-6.85-9.04-15.04-16.87-24.4-23.28-2.17-1.48-4.55,1.36-3.42,3.42,4.38,8.03,5.52,17.57,3.2,26.42h4.82c-1.4-5.13-2.79-10.27-4.19-15.4-.7-2.57-1.4-5.13-2.09-7.7-.6-2.21-.94-4.89-2.14-6.87-1.5-2.48-4.18-2.34-6.51-1.26-2.12.99-4.19,2.1-6.24,3.23-4.1,2.27-8.07,4.77-11.89,7.49-4.35,3.09-8.51,6.45-12.46,10.05l4.27,1.77c-.26-12.49,11.27-23.59,23.72-22.97v-5c-11.15.43-22.29.86-33.44,1.29l1.26,4.66c9.14-4.86,20.55-4.87,29.7,0l1.26-4.66c-17.66,1.36-34.9,5.77-51.05,13.02l3.03,3.93c9.63-11.49,22.63-22.87,38.74-20.95,4.06.48,7.89,1.99,11.18,4.4l.6-4.57c-9.45,1.91-18.63,5-27.32,9.17-7.71,3.7-15.57,8.68-19.43,16.64-2.19,4.51-3.03,9.55-1.81,14.46.53,2.15,3.46,2.37,4.57.6,6.99-11.2,17.03-20.33,28.76-26.37,3.34-1.72,6.8-3.15,10.37-4.33,3.04-1,1.74-5.83-1.33-4.82h0Z"/>
  <path class="st0" d="M290.02,391.23c8.34,3.37,15.65,8.99,21.26,16,.84,1.05,2.65.88,3.54,0,1.04-1.04.85-2.48,0-3.54-6.18-7.72-14.32-13.59-23.47-17.29-1.25-.51-2.75.55-3.08,1.75-.39,1.43.49,2.57,1.75,3.08h0Z"/>
  <path class="st0" d="M246.54,407.9c.19-6.65,2.61-13.22,6.88-18.34.86-1.04,1.02-2.52,0-3.54-.89-.89-2.67-1.04-3.54,0-5.14,6.17-8.11,13.83-8.34,21.87-.09,3.22,4.91,3.22,5,0h0Z"/>
</svg>