<?xml version="1.0" encoding="UTF-8"?>
<svg id="Layer_1" xmlns="http://www.w3.org/2000/svg" version="1.1" viewBox="0 0 595.28 841.89">
  <!-- Generator: Adobe Illustrator 29.6.1, SVG Export Plug-In . SVG Version: 2.1.1 Build 9)  -->
  <defs>
    <style>
      .st0 {
        fill: #231f20;
      }
    </style>
  </defs>
  <path class="st0" d="M-56,281.25c3.22,0,3.22-5,0-5s-3.22,5,0,5h0Z"/>
  <path class="st0" d="M269.13,376.52c-2.21-4.16-7.13-6.02-11.45-7.09-4.72-1.17-9.63-1.37-14.44-.75-9.54,1.24-18.19,5.64-25.45,11.86-3.92,3.36-7.33,7.24-10.41,11.38-.8,1.09-.18,2.79.9,3.42,1.27.74,2.61.19,3.42-.9,9.57-12.9,24.93-23.31,41.68-20.79,2.39.36,4.81.97,7.05,1.9,1.78.74,3.46,1.75,4.38,3.49,1.51,2.84,5.82.32,4.32-2.52h0Z"/>
  <path class="st0" d="M268.01,375c-17.06.25-33.76,7.58-45.43,20.04-2.2,2.35,1.33,5.89,3.54,3.54,10.79-11.51,26.11-18.34,41.89-18.57,3.21-.05,3.22-5.05,0-5h0Z"/>
  <path class="st0" d="M266.06,380.34c-9.04,3.14-16.8,9.18-22.04,17.2-.74,1.13-.23,2.76.9,3.42,1.22.71,2.68.24,3.42-.9,4.49-6.88,11.29-12.2,19.05-14.9,1.27-.44,2.12-1.71,1.75-3.08-.34-1.24-1.79-2.19-3.08-1.75h0Z"/>
  <path class="st0" d="M265.83,383.26c5.46,3.81,7.67,11.32,5.57,17.56-.43,1.28.5,2.73,1.75,3.08,1.37.38,2.64-.46,3.08-1.75,2.85-8.46-.62-18.15-7.87-23.21-1.11-.77-2.78-.2-3.42.9-.73,1.25-.21,2.65.9,3.42h0Z"/>
  <path class="st0" d="M269.88,382.62c11.22,2.32,20.21,12.51,20.76,24.03.15,3.2,5.15,3.22,5,0-.64-13.63-10.99-26.07-24.43-28.85-1.32-.27-2.7.38-3.08,1.75-.34,1.24.42,2.8,1.75,3.08h0Z"/>
  <path class="st0" d="M272.51,380.55c4.48-.91,9.02-1.44,13.59-1.57,3.76-.11,8.36-.46,11.76,1.47,3.2,1.81,4.9,5.71,6.39,8.89,1.77,3.79,3.07,7.8,3.97,11.89,1.03,4.68,1.42,9.44,1.27,14.23-.1,3.22,4.9,3.21,5,0,.3-9.5-1.61-18.94-5.46-27.62-1.77-3.99-3.88-8.25-7.46-10.92s-8.59-2.97-13.04-2.97c-5.82,0-11.64.63-17.35,1.79-1.32.27-2.09,1.84-1.75,3.08.38,1.38,1.75,2.01,3.08,1.75h0Z"/>
  <path class="st0" d="M270.46,374.28c9.22-12.29,23.07-20.89,38.04-24.16,7.5-1.64,15.57-2.09,23.06-.18,3.73.95,7.39,2.52,10.41,4.96,2.82,2.29,5.03,5.16,6.72,8.36,3.44,6.52,4.7,14.08,5.44,21.34.99,9.68,1.41,19.42,1.6,29.14.19,9.98.11,19.96-.01,29.94-.03,2.47-.06,4.95-.09,7.42-.03,2.27-.23,4.63.31,6.86.99,4.15,5.12,6.42,8.96,7.43,7.3,1.92,15.99-.38,20.88-6.29,2.6-3.14,4.4-7.78,2.24-11.66-1.59-2.86-5.43-4.25-8.51-3.23-1.77.58-2.93,1.86-3.58,3.57-.48,1.26.53,2.74,1.75,3.08,1.41.39,2.59-.48,3.08-1.75-.07.18.09-.06.07-.04-.02.02.26-.11,0-.04.39-.11.79-.19,1.07-.15.7.11.86.18,1.37.54.06.04.2.14.38.39-.14-.19.14.37.18.49.97,2.99-2.07,6.24-4.28,7.79-2.64,1.85-5.79,2.89-9.01,2.96-2.94.06-6.88-.58-8.97-2.86-1.19-1.3-.98-3.23-.96-4.87.03-2.31.06-4.62.08-6.93.06-4.78.12-9.57.14-14.35.05-9.48,0-18.96-.4-28.44-.36-8.77-.83-17.63-2.24-26.3-1.16-7.11-3.23-14.4-7.49-20.32-9.65-13.4-27.35-14.95-42.38-11.94s-28.54,10.86-38.47,22.12c-1.3,1.47-2.52,3.01-3.69,4.57-.81,1.08-.17,2.79.9,3.42,1.28.75,2.61.19,3.42-.9h0Z"/>
  <path class="st0" d="M275.55,375.46c10.51-9.03,24.45-13.86,38.3-13.32,3.32.13,6.79.58,9.64,2.42,2.66,1.72,4.25,4.74,5.45,7.58,3.03,7.17,4.8,14.88,5.98,22.55,2.38,15.52,1.75,31.31,3.99,46.83,1.95,13.49,7.99,28.03,21.22,33.97,5.84,2.62,12.33,3.15,18.33.71,5.62-2.28,10.44-6.59,12.4-12.44.49-1.46.73-3,.81-4.54.18-3.22-4.82-3.21-5,0-.29,5.28-4.16,9.5-8.75,11.78-5.05,2.51-10.89,2.31-15.92-.13-12.69-6.15-17.21-20.6-18.63-33.62-1.69-15.52-1.38-31.16-4.07-46.59-1.31-7.49-3.24-15-6.43-21.92-1.49-3.25-3.55-6.21-6.51-8.27s-6.69-2.85-10.25-3.18c-13.92-1.3-28.61,3.11-39.86,11.3-1.45,1.05-2.86,2.17-4.21,3.34-1.02.88-.9,2.63,0,3.54,1.02,1.02,2.51.88,3.54,0h0Z"/>
</svg>