<?xml version="1.0" encoding="UTF-8"?>
<svg id="Layer_1" xmlns="http://www.w3.org/2000/svg" version="1.1" viewBox="0 0 595.28 841.89">
  <!-- Generator: Adobe Illustrator 29.6.1, SVG Export Plug-In . SVG Version: 2.1.1 Build 9)  -->
  <defs>
    <style>
      .st0 {
        fill: #231f20;
      }
    </style>
  </defs>
  <path class="st0" d="M-56,281.25c3.22,0,3.22-5,0-5s-3.22,5,0,5h0Z"/>
  <path class="st0" d="M269.13,376.52c-2.21-4.16-7.13-6.02-11.45-7.09-4.72-1.17-9.63-1.37-14.44-.75-9.54,1.24-18.19,5.64-25.45,11.86-3.92,3.36-7.33,7.24-10.41,11.38-.8,1.09-.18,2.79.9,3.42,1.27.74,2.61.19,3.42-.9,9.57-12.9,24.93-23.31,41.68-20.79,2.39.36,4.81.97,7.05,1.9,1.78.74,3.46,1.75,4.38,3.49,1.51,2.84,5.82.32,4.32-2.52h0Z"/>
  <path class="st0" d="M268.01,375c-17.06.25-33.76,7.58-45.43,20.04-2.2,2.35,1.33,5.89,3.54,3.54,10.79-11.51,26.11-18.34,41.89-18.57,3.21-.05,3.22-5.05,0-5h0Z"/>
  <path class="st0" d="M266.06,380.34c-9.04,3.14-16.8,9.18-22.04,17.2-.74,1.13-.23,2.76.9,3.42,1.22.71,2.68.24,3.42-.9,4.49-6.88,11.29-12.2,19.05-14.9,1.27-.44,2.12-1.71,1.75-3.08-.34-1.24-1.79-2.19-3.08-1.75h0Z"/>
  <path class="st0" d="M265.83,383.26c5.46,3.81,7.67,11.32,5.57,17.56-.43,1.28.5,2.73,1.75,3.08,1.37.38,2.64-.46,3.08-1.75,2.85-8.46-.62-18.15-7.87-23.21-1.11-.77-2.78-.2-3.42.9-.73,1.25-.21,2.65.9,3.42h0Z"/>
  <path class="st0" d="M269.88,382.62c11.22,2.32,20.21,12.51,20.76,24.03.15,3.2,5.15,3.22,5,0-.64-13.63-10.99-26.07-24.43-28.85-1.32-.27-2.7.38-3.08,1.75-.34,1.24.42,2.8,1.75,3.08h0Z"/>
  <path class="st0" d="M218.68,400.9c5.76-14.1,20.74-23.59,35.74-24.32,4.35-.21,8.64.29,12.8,1.57,3.08.94,4.4-3.88,1.33-4.82-16.55-5.05-35.51,1.01-46.93,13.79-3.31,3.7-5.89,7.87-7.76,12.46-.51,1.25.55,2.75,1.75,3.08,1.43.39,2.56-.49,3.08-1.75h0Z"/>
  <path class="st0" d="M273.65,381.09c4.39-2.32,9.76-1.65,14.01.9,2.07,1.24,3.84,2.94,5.06,5.01,1.54,2.63,1.81,5.7,1.86,8.79.06,4.26-.18,8.68,1.51,12.7.52,1.24,1.65,2.14,3.08,1.75,1.17-.32,2.27-1.82,1.75-3.08-1.58-3.77-1.25-7.8-1.33-11.8-.07-3.74-.57-7.45-2.45-10.75-3.2-5.6-9.3-9.13-15.63-9.82-3.58-.39-7.18.3-10.36,1.98-2.85,1.5-.32,5.82,2.52,4.32h0Z"/>
  <path class="st0" d="M271.63,384.25c9.94-1.09,20.42-.25,29.6,3.97,8.45,3.89,15.51,10.55,19.09,19.22,1.94,4.69,2.83,9.94,2.1,14.99-.19,1.33.33,2.69,1.75,3.08,1.18.32,2.88-.4,3.08-1.75,1.53-10.51-2.1-20.82-8.87-28.87-6.99-8.3-17.24-13.26-27.81-15.1-6.26-1.09-12.61-1.24-18.92-.55-1.34.15-2.5,1.04-2.5,2.5,0,1.24,1.15,2.65,2.5,2.5h0Z"/>
  <path class="st0" d="M297.44,391.05c7.67,6.07,13.48,14.24,16.49,23.56.98,3.05,5.81,1.75,4.82-1.33-3.26-10.1-9.44-19.18-17.78-25.77-1.06-.84-2.5-1.03-3.54,0-.87.87-1.06,2.69,0,3.54h0Z"/>
  <path class="st0" d="M269.26,379.11c6.23-.02,12.46-.04,18.69-.06l9.1-.03c2.71,0,5.5-.16,8.12.62,4.75,1.4,8.81,5.41,12.16,8.89s6.38,7.55,8.82,11.86c2.78,4.89,4.82,10.13,6.12,15.61.75,3.13,5.57,1.8,4.82-1.33-2.5-10.46-7.67-20.21-14.86-28.2-3.59-3.99-7.89-8.16-12.79-10.49-5.6-2.66-12.02-1.95-18.05-1.93-7.38.02-14.75.05-22.13.07-3.22.01-3.22,5.01,0,5h0Z"/>
  <path class="st0" d="M235.43,377.84c-12.91-.25-25.36,7.79-31.11,19.25-1.71,3.41-2.76,6.97-3.24,10.75-.17,1.34,1.27,2.5,2.5,2.5,1.49,0,2.33-1.15,2.5-2.5,1.79-14.02,15.37-25.27,29.35-25,3.22.06,3.22-4.94,0-5h0Z"/>
  <path class="st0" d="M268.01,384.19c-10.06-.42-20.14-.27-30.18.47-4.25.31-8.52.79-12.42,2.63-3.63,1.71-6.35,4.8-7.92,8.45-1.83,4.24-2.32,8.86-2.69,13.42-.11,1.35,1.23,2.5,2.5,2.5,1.44,0,2.39-1.15,2.5-2.5.53-6.51,1.4-14.26,7.97-17.47,3.15-1.54,6.87-1.79,10.31-2.04,4.65-.34,9.31-.55,13.98-.64,5.32-.1,10.64-.03,15.95.19,3.22.13,3.21-4.87,0-5h0Z"/>
  <path class="st0" d="M269.47,370.35c-5.19-3.08-6.38-10.17-3.8-15.34,2.94-5.89,9.21-9.65,15.68-10.27s13.41,1.45,18.12,6.23,6.79,11.02,6.4,17.38c-.09,1.51-.28,3.19-.87,4.59s-2.37,1.17-3.66,1.18c-4.44.04-8.88.08-13.31.12-5.13.04-13.64.23-15.4-6.02-.76-2.69,0-5.64,1.58-7.89,1.83-2.61,4.96-3.98,8.01-4.54s7.09-.46,9.8,1.11c2.56,1.48,2.86,5.02,2.93,7.67.07,3.05.09,7.03-2.25,9.07-1.53,1.34-4.04,1.7-6.03,1.18s-3.65-2.05-3.95-3.99c-.36-2.33.68-4.77,2.52-6.3.67-.56,1.8-1.09,2.6-1.17l-2.41-1.84c1.21,3.33,2.53,7.44,1.73,10.94s-3.56,5.22-7.04,4.39c-4.03-.97-6.53-4.34-7.97-8.03-.85-2.17-1.44-4.43-2.01-6.69-.47-1.86-1.28-4.32-.42-6.18.81-1.74,3.3-2.72,4.89-3.56,2.24-1.19,4.55-2.2,7.02-2.78,3.92-.92,7.89-.16,10.8,2.71,2.65,2.61,4.11,6.2,4.99,9.75.46,1.84.79,3.73.9,5.63.1,1.75-.03,3.48-1.68,4.4-1.47.83-3.34.92-5,.97-1.94.06-3.95.1-5.85-.31-1.66-.36-3.2-1.03-4.02-2.6-1-1.91-1.28-4.48-1.54-6.61-.48-3.93-.14-9.04,3.85-11.12,3.25-1.7,6.55,1.14,7.75,4.09,1.87,4.6-.21,10.15-1.85,14.5-.58,1.54-1.39,3.48-2.97,4.24s-3.36.06-4.64-.89c-1.67-1.25-2.66-3.29-3.36-5.2-.76-2.06-1.43-4.19-1.89-6.34-.63-2.96-.73-7.37,2.83-8.02,1.19-.22,2.78.16,3.97,1.01s1.91,2.27,2.08,3.8c.23,1.94-.37,3.91-1.38,5.55-.21.34-.43.67-.7.97-.08.09-.44.41-.44.43-.05-.38.95.14.94.16.05-.1-.62-2.05-.69-2.35-.66-2.81-1.3-5.63-1.92-8.45-.28-1.29-.57-2.58-.83-3.87-.22-1.08-.67-2.6-.15-3.66.14-.29.58-.76.83-.65-.03-.01-.08.09-.16,0,.24.28.32.77.38,1.17.35,2.27-.02,4.82-.07,7.12-.07,2.82-.13,5.64-.2,8.46l4.91-.66c-1.47-5.21-2.28-10.54-2.35-15.95-.01-.77-.29-2.35.19-3.04.34-.5,1.17-.71,1.71-.87,1.88-.55,3.87-.59,5.78-.16,8.62,1.93,13.34,11.29,13.08,19.6-.07,2.12-.62,4.38-2.22,5.88-1.17,1.1-3.1,1.88-4.6,1.16-1.22-.58-2.7-.33-3.42.9-.64,1.09-.33,2.83.9,3.42,5.52,2.65,11.39-.94,13.43-6.3s.6-12.19-1.71-17.35-6.62-9.57-12.11-11.55c-2.69-.97-5.6-1.26-8.42-.85s-5.98,1.55-7.1,4.44c-.58,1.49-.53,3.14-.5,4.72.03,1.92.14,3.85.34,5.76.41,3.9,1.13,7.75,2.19,11.52.77,2.73,4.85,2.16,4.91-.66.08-3.65.17-7.3.25-10.95.06-2.8.48-6.13-1.22-8.57-1.96-2.82-5.76-2.81-8.1-.46-2.66,2.67-1.88,6.54-1.18,9.83.76,3.55,1.55,7.1,2.38,10.64.65,2.77,1.51,6.52,5.1,6.51,3.2-.02,5.25-3.61,6.26-6.21s1.27-5.73.38-8.43c-1.69-5.09-7.49-8.43-12.73-6.62-6.08,2.1-6.6,8.9-5.37,14.29s3.27,12.14,8.58,14.84c2.74,1.39,6,1.7,8.74.14s4.01-4.26,5.04-6.97c2.3-6.01,4.31-13.21,1.06-19.25-2.77-5.14-8.99-8.14-14.39-5.07-5.67,3.22-6.86,10.1-6.09,16.04.4,3.09.8,6.7,2.66,9.3,1.66,2.32,4.22,3.65,7,4.15,2.63.48,5.38.52,8.04.31s5.58-.8,7.69-2.7c2.25-2.04,2.8-5.09,2.58-8-.2-2.66-.66-5.34-1.42-7.91-1.46-4.98-4.12-9.82-8.54-12.73-5.54-3.65-12.26-2.63-18.03-.15-2.79,1.2-5.79,2.64-8.09,4.66-2.45,2.14-3.08,5.32-2.68,8.43s1.26,6.11,2.23,9.01,2.34,5.83,4.36,8.26c3.57,4.31,9.99,6.6,15.26,4.17s6.42-8.27,5.74-13.41c-.34-2.56-1.01-5.02-1.89-7.44-.35-.95-1.28-1.95-2.41-1.84-3.79.38-7.05,2.64-8.78,6.06s-1.98,7.45.04,10.71c3.98,6.43,14.3,6.49,18.58.38,2.54-3.62,2.6-8.91,2.14-13.15-.5-4.63-2.39-8.76-6.95-10.56-4.06-1.61-9.09-1.62-13.28-.54s-8.06,3.63-10.23,7.43c-2,3.49-2.7,8.01-1.2,11.81,1.58,4.01,5.07,6.58,9.14,7.73s8.49,1.02,12.73.98c2.71-.02,5.42-.05,8.14-.07,2.41-.02,5.12.27,7.44-.49,4.65-1.51,5.3-7.4,5.34-11.6s-.97-8.42-2.76-12.25c-3.63-7.78-11.03-13.36-19.5-14.76s-17.83,1.01-23.86,7.53-7.59,15.86-2.32,22.98c1.23,1.65,2.69,3.03,4.47,4.09,2.77,1.65,5.29-2.67,2.52-4.32h0Z"/>
</svg>