<?xml version="1.0" encoding="UTF-8"?>
<svg id="Layer_1" xmlns="http://www.w3.org/2000/svg" version="1.1" viewBox="0 0 595.28 841.89">
  <!-- Generator: Adobe Illustrator 29.6.1, SVG Export Plug-In . SVG Version: 2.1.1 Build 9)  -->
  <defs>
    <style>
      .st0 {
        fill: #231f20;
      }
    </style>
  </defs>
  <path class="st0" d="M-56,281.25c3.22,0,3.22-5,0-5s-3.22,5,0,5h0Z"/>
  <path class="st0" d="M269.13,376.52c-2.21-4.16-7.13-6.02-11.45-7.09-4.72-1.17-9.63-1.37-14.44-.75-9.54,1.24-18.19,5.64-25.45,11.86-3.92,3.36-7.33,7.24-10.41,11.38-.8,1.09-.18,2.79.9,3.42,1.27.74,2.61.19,3.42-.9,9.57-12.9,24.93-23.31,41.68-20.79,2.39.36,4.81.97,7.05,1.9,1.78.74,3.46,1.75,4.38,3.49,1.51,2.84,5.82.32,4.32-2.52h0Z"/>
  <path class="st0" d="M268.01,375c-17.06.25-33.76,7.58-45.43,20.04-2.2,2.35,1.33,5.89,3.54,3.54,10.79-11.51,26.11-18.34,41.89-18.57,3.21-.05,3.22-5.05,0-5h0Z"/>
  <path class="st0" d="M266.06,380.34c-9.04,3.14-16.8,9.18-22.04,17.2-.74,1.13-.23,2.76.9,3.42,1.22.71,2.68.24,3.42-.9,4.49-6.88,11.29-12.2,19.05-14.9,1.27-.44,2.12-1.71,1.75-3.08-.34-1.24-1.79-2.19-3.08-1.75h0Z"/>
  <path class="st0" d="M265.83,383.26c5.46,3.81,7.67,11.32,5.57,17.56-.43,1.28.5,2.73,1.75,3.08,1.37.38,2.64-.46,3.08-1.75,2.85-8.46-.62-18.15-7.87-23.21-1.11-.77-2.78-.2-3.42.9-.73,1.25-.21,2.65.9,3.42h0Z"/>
  <path class="st0" d="M269.88,382.62c11.22,2.32,20.21,12.51,20.76,24.03.15,3.2,5.15,3.22,5,0-.64-13.63-10.99-26.07-24.43-28.85-1.32-.27-2.7.38-3.08,1.75-.34,1.24.42,2.8,1.75,3.08h0Z"/>
  <path class="st0" d="M275.34,382.35c7.32-3.07,15.79-.72,21.74,4.21,6.82,5.66,10.89,13.78,14.38,21.75,7.79,17.82,13.09,36.77,15.89,56.01,1.57,10.78,2.27,21.68,2.21,32.57-.02,3.22,4.98,3.22,5,0,.12-20.44-2.57-40.91-7.98-60.62-2.71-9.89-6.13-19.57-10.17-28.99-3.64-8.5-7.88-17.17-14.88-23.45-7.25-6.5-18.14-10.23-27.53-6.3-1.24.52-2.14,1.65-1.75,3.08.32,1.17,1.82,2.27,3.08,1.75h0Z"/>
  <path class="st0" d="M277.77,377.5c19.14-5.97,41.12,1.4,52.25,18.19,6.43,9.7,9.56,21.11,12.37,32.27,3.19,12.68,5.7,25.54,7.53,38.49,2.07,14.65,3.19,29.43,3.47,44.22.06,3.21,5.06,3.22,5,0-.51-27.34-4.01-54.64-10.48-81.21-2.85-11.71-5.98-23.75-12.24-34.18-5.72-9.52-14.1-16.72-24.37-20.94-10.95-4.5-23.54-5.19-34.86-1.66-3.06.95-1.75,5.78,1.33,4.82h0Z"/>
  <path class="st0" d="M264.61,371.43c-10.25-2.78-21.07-.83-30.37,4.04s-17.13,12.94-22.48,22.23c-5.63,9.77-8.91,20.74-11,31.77-2.39,12.59-3.49,25.42-3.99,38.21-.57,14.74-.29,29.49,0,44.24.06,3.21,5.06,3.22,5,0-.49-25.17-1.06-50.57,2.84-75.52,3.16-20.23,9.95-42.38,28.01-54.18,9-5.88,20.08-8.84,30.66-5.96,3.11.85,4.44-3.98,1.33-4.82h0Z"/>
  <path class="st0" d="M276.38,373.8c-11.75-7.54-25.09-15.35-39.59-12.01-13.05,3-23.03,13.5-30.55,23.98-16.76,23.38-23.16,52.48-24.75,80.75-1.01,18.03-.18,36.09.65,54.11.15,3.2,5.15,3.22,5,0-1.38-29.83-2.83-60.28,4.39-89.53,3.18-12.87,7.98-25.36,14.94-36.67,6.43-10.44,15.06-21.38,26.69-26.24,6.63-2.77,13.66-2.76,20.46-.63,7.29,2.28,13.84,6.47,20.22,10.56,2.72,1.74,5.23-2.58,2.52-4.32h0Z"/>
  <path class="st0" d="M284.92,377.15c7.23-1.78,14.86,1.3,20.12,6.29,5.79,5.49,9.16,12.95,11.6,20.42.99,3.05,5.82,1.74,4.82-1.33-4.25-13.04-11.99-26.61-26.31-30.14-3.8-.94-7.75-1-11.56-.06-3.12.77-1.8,5.59,1.33,4.82h0Z"/>
</svg>