<?xml version="1.0" encoding="UTF-8"?>
<svg id="Layer_1" xmlns="http://www.w3.org/2000/svg" version="1.1" viewBox="0 0 595.28 841.89">
  <!-- Generator: Adobe Illustrator 29.6.1, SVG Export Plug-In . SVG Version: 2.1.1 Build 9)  -->
  <defs>
    <style>
      .st0 {
        fill: #231f20;
      }
    </style>
  </defs>
  <path class="st0" d="M-56,281.25c3.22,0,3.22-5,0-5s-3.22,5,0,5h0Z"/>
  <path class="st0" d="M266.55,297.79c-14.78-9.9-34.98-9.9-50.37-1.37-4.32,2.4-8.28,5.52-11.58,9.2-2.14,2.39,1.39,5.94,3.54,3.54,10.68-11.95,28.18-16.59,43.57-12.58,4.41,1.15,8.53,3,12.32,5.53,2.68,1.8,5.19-2.53,2.52-4.32h0Z"/>
  <path class="st0" d="M215.23,290.62c9.38-.92,19.09-1.97,28.41,0,7.27,1.54,14.59,4.93,19.2,10.97.82,1.07,2.15,1.64,3.42.9,1.06-.62,1.72-2.34.9-3.42-5.27-6.9-13.03-11.17-21.42-13.1-10.03-2.3-20.38-1.34-30.5-.34-1.34.13-2.5,1.05-2.5,2.5,0,1.25,1.15,2.63,2.5,2.5h0Z"/>
  <path class="st0" d="M234.7,281.37c12.73-1.9,26.07,6.97,29.62,19.24.89,3.09,5.72,1.77,4.82-1.33-4.36-15.11-20.32-25.04-35.77-22.73-1.34.2-2.07,1.89-1.75,3.08.39,1.43,1.73,1.95,3.08,1.75h0Z"/>
  <path class="st0" d="M268.69,296.28c5.89-7.69,15.73-11.85,25.31-11.21,1.35.09,2.5-1.21,2.5-2.5,0-1.43-1.15-2.41-2.5-2.5-11.48-.76-22.68,4.62-29.63,13.69-.82,1.07-.17,2.8.9,3.42,1.29.75,2.6.18,3.42-.9h0Z"/>
  <path class="st0" d="M268.46,301.96c4.38-5.3,10.7-7.74,17.33-8.86,3.42-.57,6.9-.76,10.36-.82,3.23-.05,6.79-.2,9.89.28,1.54.24,3.14.63,4.4,1.34,1.1.62,1.86,1.42,1.96,2.38.14,1.34,1.05,2.5,2.5,2.5,1.24,0,2.64-1.15,2.5-2.5-.9-8.6-11.29-8.95-17.93-9.01-7.94-.06-16.29.35-23.72,3.43-4.16,1.72-7.93,4.23-10.82,7.72-.86,1.04-1.02,2.52,0,3.54.89.89,2.67,1.05,3.54,0h0Z"/>
  <path class="st0" d="M269.7,304.91c8.71-2.55,17.94-4.27,27.04-4.23,5.91.03,13.18,1.18,15.96,7.05.58,1.22,2.33,1.54,3.42.9,1.25-.73,1.48-2.2.9-3.42-2.55-5.4-8.31-8.11-13.96-9-7-1.11-14.24-.27-21.2.84-4.56.73-9.06,1.76-13.49,3.05-3.08.9-1.77,5.73,1.33,4.82h0Z"/>
</svg>