<?xml version="1.0" encoding="UTF-8"?>
<svg id="Layer_1" xmlns="http://www.w3.org/2000/svg" version="1.1" viewBox="0 0 595.28 841.89">
  <!-- Generator: Adobe Illustrator 29.6.1, SVG Export Plug-In . SVG Version: 2.1.1 Build 9)  -->
  <defs>
    <style>
      .st0 {
        fill: #231f20;
      }
    </style>
  </defs>
  <path class="st0" d="M236.66,279.88c-4.55-9.52-16.54-11.82-25.9-9.08-11.79,3.45-18.39,14.59-21.71,25.73-1.89,6.34-2.92,12.91-3.89,19.44-1.15,7.76-2.08,15.55-2.76,23.36-1.34,15.34-1.77,30.76-1.27,46.15.57,17.56,2.35,35.07,5.28,52.4.22,1.33,1.87,2.08,3.08,1.75,1.41-.39,1.97-1.74,1.75-3.08-4.93-29.19-6.41-58.95-4.49-88.49.92-14.22,2.38-28.6,5.25-42.57,2.12-10.29,5.97-22.56,15.66-28,4.14-2.33,9.37-3.31,13.86-2.58,4.81.78,8.73,3.1,10.83,7.5.58,1.22,2.32,1.54,3.42.9,1.25-.73,1.48-2.2.9-3.42h0Z"/>
  <path class="st0" d="M247.58,280.07l-5.46,2.62,2.52,4.32c5.23-2.65,10.93-5.55,16.97-5.05,4.52.37,8.48,3.18,11.2,6.68,7.16,9.22,6.08,22.26,6.22,33.25.34,26.25.67,52.5,1.01,78.75.19,14.79.38,29.57.57,44.36.04,3.21,5.04,3.22,5,0-.35-27.33-.7-54.66-1.05-81.99-.17-13.62-.35-27.25-.52-40.87-.15-11.86.73-25.44-6.58-35.57-3.52-4.88-8.53-8.65-14.61-9.47-7.37-.98-14.33,2.35-20.73,5.6-1.2.61-1.55,2.3-.9,3.42.73,1.24,2.2,1.48,3.42.9l5.46-2.62c1.22-.58,1.54-2.32.9-3.42-.73-1.24-2.2-1.48-3.42-.9h0Z"/>
  <path class="st0" d="M245.52,277.98c7.18-5.8,17.27-6.63,25.89-3.94,4.32,1.35,8.4,3.66,11.65,6.84,3.89,3.8,6.13,8.66,7.34,14.01,1.56,6.92,1.53,14.14,1.82,21.19.33,7.81.63,15.62.91,23.43.56,15.54,1.03,31.08,1.42,46.62.43,17.54.76,35.08.97,52.62.04,3.22,5.04,3.22,5,0-.39-32.42-1.16-64.84-2.32-97.24-.29-8.14-.6-16.28-.94-24.42-.31-7.4-.34-14.93-1.77-22.22-1.19-6.08-3.63-11.83-7.84-16.42-3.52-3.84-8.03-6.65-12.88-8.51-10.86-4.15-23.64-2.86-32.78,4.53-1.05.85-.88,2.65,0,3.54,1.04,1.04,2.48.85,3.54,0h0Z"/>
  <path class="st0" d="M247.32,267.83c12.35-2.11,26.32-3.46,37.14,4.19,10.14,7.16,14.66,19.84,16.32,31.65,1.02,7.27,1.1,14.64,1.25,21.96s.31,15.33.46,22.99c.31,15.5.62,30.99.94,46.49.35,17.5.71,34.99,1.06,52.49.06,3.21,5.06,3.22,5,0-.64-31.99-1.29-63.98-1.93-95.98-.16-8-.32-16-.48-23.99s-.21-15.21-1.13-22.76c-1.57-12.88-5.9-26.21-16.07-34.92-5.85-5.02-12.97-7.64-20.58-8.46s-15.64.22-23.3,1.53c-1.33.23-2.08,1.87-1.75,3.08.39,1.41,1.74,1.97,3.08,1.75h0Z"/>
  <path class="st0" d="M240.37,270.77c-1.1-6.07-5.89-10.58-11.41-12.85-6.09-2.49-12.78-1.74-18.73.8-6.38,2.72-11.99,7.32-16.7,12.34-5.01,5.35-8.69,11.58-10.73,18.64s-2.63,14.86-3.2,22.35c-.61,8.08-1.11,16.17-1.52,24.27-.81,16.19-1.21,32.4-1.21,48.61,0,18.36.53,36.72,1.57,55.05.18,3.2,5.18,3.22,5,0-1.77-31.21-2.05-62.51-.81-93.74.31-7.77.71-15.53,1.21-23.29s.84-14.83,1.81-22.17c.88-6.68,2.5-13.38,6.03-19.18s8.22-10.43,13.47-14.22,12.14-7.12,18.87-5.74c5.44,1.11,10.49,4.75,11.53,10.46.24,1.33,1.86,2.08,3.08,1.75,1.4-.38,1.99-1.74,1.75-3.08h0Z"/>
  <path class="st0" d="M241.32,260.35c-2.53-6.38-7.09-12.39-13.46-15.31-3.31-1.52-6.84-2.13-10.46-1.64-4.11.56-7.89,2.45-11.42,4.54-12.2,7.24-22.34,17.92-29.13,30.36-3.4,6.22-6,12.92-7.59,19.82-1.97,8.55-2.5,17.37-2.48,26.12s.49,17.85.82,26.77.67,18.24,1.01,27.36c.68,18.32,1.35,36.65,2.03,54.97.08,2.24.17,4.48.25,6.72.12,3.21,5.12,3.22,5,0-.65-17.58-1.3-35.15-1.94-52.73s-1.33-34.89-1.93-52.33c-.55-15.81-.43-31.76,5.57-46.65,4.91-12.19,13.26-23.12,23.64-31.16,2.69-2.08,5.55-3.97,8.51-5.64,3.18-1.8,6.66-3.39,10.39-3.34,6.09.09,11.26,4.54,14.33,9.48.79,1.27,1.49,2.6,2.04,3.99.5,1.25,1.67,2.13,3.08,1.75,1.19-.33,2.25-1.81,1.75-3.08h0Z"/>
  <path class="st0" d="M-167.25,152.5c3.22,0,3.22-5,0-5s-3.22,5,0,5h0Z"/>
</svg>