<?xml version="1.0" encoding="UTF-8"?>
<svg id="Layer_1" xmlns="http://www.w3.org/2000/svg" version="1.1" viewBox="0 0 595.28 841.89">
  <!-- Generator: Adobe Illustrator 29.6.1, SVG Export Plug-In . SVG Version: 2.1.1 Build 9)  -->
  <defs>
    <style>
      .st0 {
        fill: #231f20;
      }
    </style>
  </defs>
  <path class="st0" d="M-56,281.25c3.22,0,3.22-5,0-5s-3.22,5,0,5h0Z"/>
  <path class="st0" d="M272.78,313.53c-7.16-12.42-23.89-18.33-37.2-12.79-1.25.52-2.14,1.66-1.75,3.08.32,1.18,1.82,2.27,3.08,1.75,11.29-4.7,25.4-.17,31.55,10.5,1.61,2.79,5.93.27,4.32-2.52h0Z"/>
  <path class="st0" d="M275.09,315.11c7.05-13.3,21.33-22.21,36.41-22.52,3.21-.07,3.22-5.07,0-5-12.98.27-25.66,6.19-34.32,15.85-2.49,2.78-4.67,5.85-6.41,9.15-1.51,2.84,2.81,5.37,4.32,2.52h0Z"/>
  <path class="st0" d="M270.94,310c.02-15.34,9.31-29.88,23.11-36.5,1.22-.58,1.54-2.32.9-3.42-.73-1.24-2.2-1.48-3.42-.9-11.89,5.71-20.84,17.01-24.16,29.73-.94,3.61-1.42,7.36-1.43,11.09,0,3.22,5,3.22,5,0h0Z"/>
</svg>