<?xml version="1.0" encoding="UTF-8"?>
<svg id="Layer_1" xmlns="http://www.w3.org/2000/svg" version="1.1" viewBox="0 0 595.28 841.89">
  <!-- Generator: Adobe Illustrator 29.6.1, SVG Export Plug-In . SVG Version: 2.1.1 Build 9)  -->
  <defs>
    <style>
      .st0 {
        fill: #231f20;
      }
    </style>
  </defs>
  <path class="st0" d="M253.82,331.14c-3.7-4.84-8.81-8.38-14.74-9.9s-12.04-.84-17.55,1.71-9.78,6.79-12.39,12.04c-2.8,5.64-3.71,11.93-3.97,18.16-.55,13.15,1.07,26.34.3,39.48-.56,9.53-3.16,21.57-13.05,25.65-5.16,2.13-12.02,1.05-14.12-4.79-.85-2.37-.42-4.78,1.4-6.54,1.51-1.45,3.87-2.28,5.69-1.46,1.23.56,2.69.35,3.42-.9.63-1.07.34-2.86-.9-3.42-5.28-2.4-11.65.23-14.07,5.48-2.67,5.79.51,12.55,5.72,15.68,5.59,3.36,12.97,2.22,18.19-1.3,4.69-3.16,7.87-7.81,9.84-13.05,4.33-11.48,3-24.54,2.69-36.52-.19-7.07-.51-14.21.06-21.26.48-5.9,1.87-12.21,5.75-16.88,4.1-4.93,10.29-7.98,16.73-7.92s12.79,3.18,16.67,8.26c.82,1.07,2.15,1.64,3.42.9,1.05-.62,1.72-2.34.9-3.42h0Z"/>
  <path class="st0" d="M262.28,331.07c2.81-4.22,6.69-8.39,11.54-10.21s9.57-.59,13.14,2.96c4.01,3.99,5.62,9.64,6.25,15.12.78,6.65.9,13.43,1.04,20.11s.07,13.76-.37,20.63-1.54,13.33-2.32,20.01c-.7,6.02-.34,12.4,3.72,17.23,3.38,4.02,9.09,6.35,14.11,4.1,3.15-1.41,5.4-4.39,7.27-7.18s3.46-6.27,3.19-9.76c-.23-3.07-1.82-5.7-4.39-7.41-2.42-1.61-5.65-1.9-8.13-.29-2.69,1.75-.18,6.08,2.52,4.32.67-.44,1.13-.5,1.74-.35.79.2,1.45.63,2.05,1.25,1.51,1.56,1.42,3.71.78,5.72-.81,2.52-2.52,4.88-4.26,6.84-1.49,1.68-3.3,3.01-5.57,2.75-4.54-.51-7.42-5.01-8.11-9.16-.99-5.92.76-12.2,1.48-18.05,1.59-13.1,1.58-26.33,1-39.5-.51-11.34-.85-24.61-10.91-31.99-4.97-3.64-11.26-4.05-16.85-1.65s-9.93,7.02-13.23,11.98c-1.79,2.69,2.54,5.19,4.32,2.52h0Z"/>
  <path class="st0" d="M635.25,576.25c3.22,0,3.22-5,0-5s-3.22,5,0,5h0Z"/>
</svg>