<?xml version="1.0" encoding="UTF-8"?>
<svg id="Layer_1" xmlns="http://www.w3.org/2000/svg" version="1.1" viewBox="0 0 595.28 841.89">
  <!-- Generator: Adobe Illustrator 29.6.1, SVG Export Plug-In . SVG Version: 2.1.1 Build 9)  -->
  <defs>
    <style>
      .st0 {
        fill: #231f20;
      }
    </style>
  </defs>
  <path class="st0" d="M250.71,353.28c-4.28-4.82-10.96-6.97-17.3-6.48-6.86.54-13.01,3.91-17.58,9.01-10.69,11.91-11.22,28.49-12.03,43.62-.52,9.76-1.04,19.53-1.57,29.29-.17,3.22,4.83,3.21,5,0,.43-8.12.87-16.25,1.3-24.37s.53-15.56,1.72-23.21c1.84-11.79,7.56-25.89,20.5-28.91,5.83-1.36,12.34.01,16.41,4.59,2.14,2.41,5.67-1.14,3.54-3.54h0Z"/>
  <path class="st0" d="M261.22,356.71c1.98-3.85,6.34-5.11,10.56-4.49,5.13.75,8.9,4.07,11.37,8.74,2.89,5.44,3.76,11.79,4.46,17.83.9,7.8,1.45,15.63,1.66,23.48.23,8.83.02,17.66-.62,26.47-.1,1.35,1.22,2.5,2.5,2.5,1.43,0,2.4-1.15,2.5-2.5,1.23-16.96.86-34.03-1.15-50.92-.82-6.87-1.92-13.94-5.39-20.04-3.03-5.33-7.87-9.37-14.03-10.37s-13.13.86-16.18,6.79c-1.47,2.86,2.85,5.39,4.32,2.52h0Z"/>
  <path class="st0" d="M258.03,349.82c3.94-4.8,10.42-7.42,16.58-6.09s11.22,5.99,14.38,11.37c3.99,6.8,5.48,14.74,6.82,22.4,1.45,8.27,2.49,16.6,3.12,24.97.73,9.57.93,19.17.63,28.75-.1,3.22,4.9,3.22,5,0,.57-18.19-.72-36.41-3.81-54.34-1.44-8.34-3.11-16.92-7.45-24.32-3.64-6.2-9.4-11.55-16.46-13.45-8.02-2.16-17.09.73-22.36,7.15-.86,1.04-1.02,2.52,0,3.54.88.88,2.67,1.05,3.54,0h0Z"/>
  <path class="st0" d="M249.54,360.44c-6.76-2.59-13.93-4.42-20.77-1.04-5.44,2.69-9.43,7.97-11.85,13.41-5.66,12.7-4.76,26.72-4.04,40.27.41,7.72.73,15.48-.27,23.16-.17,1.34,1.27,2.5,2.5,2.5,1.5,0,2.32-1.15,2.5-2.5,1.68-12.94-.39-25.93-.29-38.9.05-6.16.62-12.32,2.5-18.21,1.64-5.13,4.33-10.31,8.67-13.67,2.46-1.9,5.39-3.01,8.51-3,3.88.02,7.63,1.43,11.21,2.81,1.26.48,2.74-.53,3.08-1.75.39-1.41-.48-2.59-1.75-3.08h0Z"/>
</svg>