<?xml version="1.0" encoding="UTF-8"?>
<svg id="Layer_1" xmlns="http://www.w3.org/2000/svg" version="1.1" viewBox="0 0 595.28 841.89">
  <!-- Generator: Adobe Illustrator 29.6.1, SVG Export Plug-In . SVG Version: 2.1.1 Build 9)  -->
  <defs>
    <style>
      .st0 {
        fill: #231f20;
      }
    </style>
  </defs>
  <path class="st0" d="M-56,281.25c3.22,0,3.22-5,0-5s-3.22,5,0,5h0Z"/>
  <path class="st0" d="M218.2,316.05c5.65-11.98,17.55-20.37,30.62-22.22,3.53-.5,7.2-.5,10.72.07,1.33.21,2.69-.34,3.08-1.75.33-1.19-.41-2.86-1.75-3.08-14.69-2.35-30.09,3.22-40.09,14.22-2.78,3.06-5.13,6.49-6.9,10.23-.58,1.22-.34,2.7.9,3.42,1.09.64,2.84.33,3.42-.9h0Z"/>
  <path class="st0" d="M233.44,316.96c8.02-7,17.37-12.46,27.41-15.99,1.27-.45,2.12-1.71,1.75-3.08-.34-1.23-1.8-2.2-3.08-1.75-10.89,3.84-20.92,9.68-29.62,17.28-1.02.89-.91,2.63,0,3.54,1.01,1.01,2.52.89,3.54,0h0Z"/>
  <path class="st0" d="M259.67,319.29c2.07-7.83,4.75-15.49,8.08-22.87.55-1.23.35-2.69-.9-3.42-1.07-.63-2.86-.34-3.42.9-3.51,7.78-6.4,15.81-8.58,24.06-.82,3.11,4,4.44,4.82,1.33h0Z"/>
  <path class="st0" d="M263.24,295.73c5.98,7.12,9.44,16.23,9.77,25.52.12,3.21,5.12,3.22,5,0-.38-10.68-4.37-20.88-11.24-29.05-.87-1.03-2.64-.9-3.54,0-1.02,1.02-.87,2.5,0,3.54h0Z"/>
  <path class="st0" d="M272.79,295.48c14.32.86,26.68,13.97,26.88,28.27.05,3.21,5.05,3.22,5,0-.18-13.1-8.87-25.4-20.81-30.59-3.54-1.54-7.22-2.45-11.07-2.68-3.21-.19-3.2,4.81,0,5h0Z"/>
  <path class="st0" d="M269.1,287c3.56-10.93,13.84-18.13,24.32-21.7,6.06-2.07,12.56-3.26,18.97-2.71s12.09,3.52,16.49,8.29c8.61,9.34,12.38,22.21,14.22,34.5,1.93,12.88,1.8,25.94,2.85,38.9.58,7.09,1.94,15.19,7.98,19.79,4.93,3.76,12.79,4.61,17.26-.35,2.15-2.39-1.38-5.93-3.54-3.54-3.19,3.55-9.08,1.99-12.12-1.38-4.14-4.61-4.41-11.72-4.8-17.56-.88-13.21-.97-26.51-3.2-39.59s-6.7-25.7-15.83-35.05c-4.98-5.1-11.21-8.07-18.28-8.9-6.65-.78-13.58.35-19.94,2.33-12.75,3.98-24.93,12.48-29.22,25.65-1,3.07,3.83,4.38,4.82,1.33h0Z"/>
  <path class="st0" d="M262.39,283.13c4.86-14.46,18.66-23.53,32.75-27.47,8.24-2.31,17.01-3.42,25.57-3.43,3.88,0,7.88.41,11.39,2.18,2.7,1.36,4.99,3.32,6.87,5.68,3.92,4.93,5.94,11.21,7.38,17.24,1.88,7.87,2.88,15.96,4.15,23.95,1.5,9.38,3,18.76,4.5,28.14,1.21,7.57,2.24,16.45,8.25,21.94,4.86,4.43,13.95,6.76,18.88,1.05,3.7-4.29,3.14-11.96-1.72-15.19-1.2-.8-2.64-1.16-4.08-1.18-3.22-.04-3.22,4.96,0,5,.17,0,.34,0,.51.02-.05,0-.34-.06-.06,0,.12.03.81.25.41.08.21.09.41.21.61.33.4.24.13.09.05.02.12.1.23.21.34.32s.22.23.32.34c-.03-.04-.2-.27-.03-.04s.3.47.44.72c.26.47.27.54.45,1.25.19.77.16.56.18,1.36,0,.26,0,.51-.01.77-.01.17-.02.34-.05.51.04-.28,0-.05-.03.09-.07.29-.15.57-.23.86-.04.12-.08.24-.13.36.14-.34-.03.04-.05.09-.34.64-.41.75-.78,1.12-1.73,1.74-4.94,1.82-7.49.95-3.01-1.03-5.26-3.3-6.78-6.03-1.81-3.25-2.61-6.97-3.26-10.6-.77-4.34-1.41-8.7-2.11-13.06-1.47-9.22-2.95-18.43-4.42-27.65-1.14-7.13-2.11-14.32-4.2-21.25-1.84-6.12-4.56-12.22-9.08-16.85-5.45-5.59-12.79-7.57-20.44-7.53-8.4.05-17.02,1.1-25.15,3.2-14.57,3.76-28.81,12.32-35.65,26.23-.82,1.66-1.52,3.39-2.11,5.14-1.03,3.06,3.8,4.37,4.82,1.33h0Z"/>
  <path class="st0" d="M386.33,355.06c.16,2.58-.55,4.82-2.16,6.88-1.76,2.25-4.17,3.93-6.66,5.29-2.64,1.44-5.44,2.49-8.33,3.31-3.74,1.05-7.72,1.95-11.54.8-6.42-1.94-10.27-8.35-12.02-14.42-1.08-3.75-1.6-7.63-2.04-11.5-.5-4.42-.98-8.83-1.46-13.25-.9-8.19-1.69-16.4-2.76-24.57-.86-6.57-1.96-13.15-4.12-19.43-4.05-11.75-12.49-22.49-25.45-24.4-11.59-1.71-23.94,2.96-30.8,12.6-.82,1.15-1.53,2.37-2.14,3.64s-.33,2.7.9,3.42c1.09.64,2.83.33,3.42-.9,4.81-9.99,16.29-15.21,27.03-13.98,5.35.61,10.37,3.24,14.24,7.22,4.29,4.41,6.94,10.12,8.71,15.95,1.88,6.22,2.87,12.68,3.62,19.12,1,8.59,1.9,17.19,2.85,25.79s1.2,17,4.26,24.78c2.59,6.57,7.45,12.64,14.44,14.74,4.05,1.22,8.35.7,12.38-.31,3.26-.82,6.44-1.91,9.47-3.35,5.46-2.59,11.01-6.78,12.7-12.87.41-1.48.56-3.05.47-4.58-.2-3.2-5.2-3.22-5,0h0Z"/>
  <path class="st0" d="M280.17,286.16c8.22-.45,15.87,3.36,21.66,9,6.54,6.37,10.33,14.85,12.82,23.51,1.5,5.2,2.56,10.52,3.55,15.84.25,1.33,1.85,2.08,3.08,1.75,1.4-.38,1.99-1.74,1.75-3.08-3.45-18.68-9.28-39.94-27.95-48.87-4.65-2.22-9.73-3.44-14.9-3.15-3.2.18-3.22,5.18,0,5h0Z"/>
  <path class="st0" d="M282.07,283.22c-9.01-1.36-18.02-2.71-27.03-4.07v4.82c7.91-1.51,16.15.43,22.72,5.03l-1.15-2.82c-.06.45-.02.46-.2.66.34-.38-.25.09-.28.11-.48.23-1.3.36-1.86.38-2.26.05-4.56-.41-6.77-.84-5.11-.98-10.09-2.51-14.89-4.52l1.1.64c.34.5.4,1.02.17,1.55-.12.17-.07.13.15-.1.07-.01.43-.23.56-.28.62-.23,1.31-.13,2.07-.13,2.29,0,4.58.05,6.87.17,4.52.23,9.02.71,13.48,1.45,1.33.22,2.69-.35,3.08-1.75.33-1.19-.41-2.86-1.75-3.08-4.99-.82-10.01-1.39-15.06-1.64-2.53-.13-5.07-.2-7.61-.15-1.97.04-3.98.61-5.4,2.06-1.56,1.58-1.75,4.21.15,5.62.94.7,2.34,1.07,3.44,1.49,1.16.44,2.33.85,3.51,1.23,4.5,1.45,9.12,2.44,13.81,3.04,3.66.47,9.56.15,10.22-4.59.17-1.2-.14-2.12-1.15-2.82-7.69-5.38-17.38-7.28-26.57-5.53-2.34.45-2.43,4.45,0,4.82,9.01,1.36,18.02,2.71,27.03,4.07,1.33.2,2.69-.34,3.08-1.75.32-1.18-.4-2.87-1.75-3.08h0Z"/>
</svg>