<?xml version="1.0" encoding="UTF-8"?>
<svg id="Layer_1" xmlns="http://www.w3.org/2000/svg" version="1.1" viewBox="0 0 595.28 841.89">
  <!-- Generator: Adobe Illustrator 29.6.1, SVG Export Plug-In . SVG Version: 2.1.1 Build 9)  -->
  <defs>
    <style>
      .st0 {
        fill: #231f20;
      }

      .st1 {
        fill: none;
        stroke: #231f20;
        stroke-miterlimit: 10;
        stroke-width: 5px;
      }
    </style>
  </defs>
  <path class="st0" d="M-56,281.25c3.22,0,3.22-5,0-5s-3.22,5,0,5h0Z"/>
  <path class="st1" d="M221.14,288.04c15.86-10.04,35.86-12.04,53.86-6.04,31,11,49,43,45,76-3,19-11,37-27,49-15,11-33,16-52,12-28-6-49-30-52.38-58.17"/>
  <path class="st0" d="M325.01,343.38c.68-2.85,3.35-4.77,6.18-5.15,3.3-.44,6.38,1.38,8.17,4.21,1.95,3.07,2.46,6.8,1.36,10.27-.97,3.04-3.53,6.14-6.73,6.47s-6.63-1.68-7.12-4.99c-.2-1.34-1.89-2.07-3.08-1.75-1.43.39-1.94,1.73-1.75,3.08.73,4.96,5.51,8.19,10.23,8.64,5.21.5,9.98-2.98,12.21-7.53,2.38-4.87,2.34-10.44-.03-15.31-2.24-4.58-6.81-8.08-12.01-8.15s-10.97,3.43-12.26,8.88c-.74,3.13,4.08,4.46,4.82,1.33h0Z"/>
  <path class="st0" d="M206.5,357.85l-16.5-1.33c-4.51-.36-9.43-.52-13.37-3-2.65-1.67-5.03-5.44-3.53-8.59,1.72-3.6,7.09-4.73,10.57-5.51,5.6-1.27,11.48-1.41,17.13-.42,1.33.23,2.69-.36,3.08-1.75.33-1.21-.41-2.84-1.75-3.08-6.06-1.06-12.17-1.06-18.22.09-5.09.97-11.11,2.58-14.35,6.94s-1.92,10.02,1.37,13.9c3.62,4.27,9.41,5.47,14.71,6.03,6.94.73,13.92,1.15,20.87,1.71,1.35.11,2.5-1.23,2.5-2.5,0-1.44-1.15-2.39-2.5-2.5h0Z"/>
  <path class="st0" d="M236.5,326.25c6.43,0,6.45-10,0-10s-6.45,10,0,10h0Z"/>
  <path class="st0" d="M276.05,333.75c6.43,0,6.45-10,0-10s-6.45,10,0,10h0Z"/>
  <path class="st0" d="M269.01,310.12c6.05-.65,12.16-.45,18.14.69,1.32.25,2.7-.37,3.08-1.75.34-1.22-.41-2.82-1.75-3.08-6.42-1.23-12.97-1.57-19.47-.87-1.34.14-2.5,1.05-2.5,2.5,0,1.24,1.15,2.64,2.5,2.5h0Z"/>
  <path class="st0" d="M250.03,302.08c-8.38-3.96-17.63-5.19-26.75-3.58-1.33.24-2.08,1.86-1.75,3.08.39,1.4,1.74,1.98,3.08,1.75,7.7-1.36,15.83-.26,22.9,3.08,1.22.58,2.7.34,3.42-.9.64-1.09.33-2.84-.9-3.42h0Z"/>
  <path class="st0" d="M238.95,383.28c12.2-5.71,26.22-7.41,39.43-4.83,1.32.26,2.7-.37,3.08-1.75.34-1.23-.41-2.82-1.75-3.08-14.63-2.86-29.79-.98-43.28,5.34-1.22.57-1.53,2.33-.9,3.42.73,1.25,2.19,1.47,3.42.9h0Z"/>
  <path class="st0" d="M207.91,308.24c2.3-7.95,8.17-14.46,15.92-17.75,1.24-.53,1.52-2.36.9-3.42-.75-1.29-2.17-1.43-3.42-.9-8.78,3.73-15.58,11.6-18.22,20.74-.9,3.1,3.93,4.42,4.82,1.33h0Z"/>
  <path class="st0" d="M258.14,425.09c-.71,17.02-1.41,34.03-2.12,51.05-.14,3.45-.63,7.13.27,10.53s3.52,5.96,7.07,5.98c3.26.01,6.44-2.17,7.92-5.02,1.8-3.47,1.67-7.4,1.55-11.2-.29-9.58-.58-19.15-.88-28.73h-5c.78,17.9,3.16,35.75,7.15,53.22,1.12,4.92,2.38,9.81,3.75,14.67.3,1.07,1.31,1.82,2.41,1.84,8.22.09,16.44.18,24.66.27,2.01.02,4.02.11,6.03.06s3.81-.68,4.92-2.37c1.94-2.95.44-6.92-.3-10.01-3.85-15.91-7.72-31.82-12.01-47.62-2.41-8.88-4.96-17.72-7.69-26.51-.95-3.06-5.62-1.8-4.82,1.33,2.11,8.32,4.72,16.51,7.84,24.51,1.57,4.02,3.26,7.99,5.06,11.91.91,1.97,1.84,3.92,2.81,5.85.87,1.73,1.72,3.56,3.57,4.43,2.37,1.11,4.77-.17,6.98-1.05,2.42-.96,4.84-1.92,7.25-2.88,1.24-.49,2.16-1.66,1.75-3.08-5.29-18.28-13.36-35.77-23.89-51.62-3-4.52-6.22-8.89-9.59-13.14-.84-1.06-2.66-.88-3.54,0-1.05,1.05-.84,2.47,0,3.54,11.42,14.38,20.66,30.59,27.23,47.74,1.86,4.87,3.52,9.81,4.96,14.82l1.75-3.08c-1.89.75-3.78,1.5-5.67,2.25-.91.36-1.81.72-2.72,1.08-.76.3-1.68.86-2.5.87-.17,0,.13.07.17.1-.08-.06-.21-.2-.26-.28-.16-.27-.31-.54-.46-.81-.46-.87-.89-1.76-1.33-2.65-.85-1.73-1.68-3.48-2.48-5.24-3.22-7.05-6.01-14.29-8.4-21.66-1.38-4.27-2.61-8.58-3.72-12.93l-4.82,1.33c4.6,14.77,8.66,29.71,12.46,44.71,1.88,7.42,3.71,14.86,5.52,22.3.89,3.68,1.99,7.38,2.67,11.1.1.54.19,1.14.1,1.69,0-.04-.19.38,0,.22-.41.35-1.45.16-1.93.16-1.15-.01-2.3-.03-3.45-.04-8.71-.1-17.43-.19-26.14-.29l2.41,1.84c-4.77-16.9-8.06-34.21-9.7-51.7-.46-4.94-.8-9.9-1.02-14.86-.14-3.2-5.1-3.23-5,0,.24,7.76.47,15.52.71,23.28.11,3.55.45,7.18.16,10.72-.19,2.36-1.08,4.97-3.54,5.79-2.1.7-3.11-1.19-3.39-3.16-.46-3.22.06-6.7.19-9.93l.95-22.91c.37-8.8.73-17.6,1.1-26.4.13-3.22-4.87-3.21-5,0h0Z"/>
  <path class="st0" d="M313.87,481.57l7.64,17.79c1.31,3.04,2.61,6.08,3.92,9.12,1.19,2.77,2.55,5.54,3.38,8.45.75,2.66.52,4.99-.36,7.57-.82,2.41-1.94,4.74-2.35,7.27-.43,2.69-.16,5.43,1.37,7.75s3.92,3.96,6.7,4.22c5.48.51,10.23-6.2,6.97-11l-3.93,3.03c2.1,1.85,4.41,3.22,7.02,4.21,1.23.47,2.79-.53,3.08-1.75,1.31-5.5.26-11.45-3.08-16.04l-3.93,3.03c1.54,1.36,3.07,2.71,4.61,4.07.8.71,2.07,1.02,3.03.39,3.51-2.3,3.31-6.28,1.76-9.74s-4.51-6.34-6.67-9.53c-4.76-7.02-8.15-14.83-10.98-22.79-1.62-4.55-3.07-9.15-4.51-13.76-.96-3.06-5.79-1.75-4.82,1.33,2.42,7.72,4.9,15.43,8.07,22.88s7.16,14.29,12.25,20.58c.96,1.19,1.87,2.54,2.41,3.98.29.78.45,1.3.4,2.02,0,.12,0,.18-.06.29-.04.08-.21.31-.37.41l3.03.39c-1.54-1.36-3.07-2.71-4.61-4.07-.93-.82-2.27-1-3.28-.2-.89.71-1.39,2.2-.64,3.23,2.57,3.53,3.6,7.91,2.58,12.19l3.08-1.75c-1.76-.67-3.4-1.68-4.82-2.93-.93-.82-2.27-1-3.28-.2-.92.73-1.36,2.18-.64,3.23.38.55.43.79.35,1.22-.12.7-.44,1.24-.95,1.7-.42.38-.91.59-1.36.6-.74.02-1.43-.26-2.02-.69-3.61-2.61-1.34-7.52-.11-10.77.83-2.19,1.54-4.44,1.6-6.81.07-2.74-.75-5.43-1.76-7.95-2.13-5.29-4.48-10.5-6.73-15.73-2.55-5.93-5.09-11.86-7.64-17.79-.53-1.24-2.36-1.52-3.42-.9-1.28.75-1.43,2.17-.9,3.42h0Z"/>
  <path class="st0" d="M259.21,490.38c1.11,10.61,1.16,21.33.11,31.95-.52,5.25-1.32,10.46-2.39,15.62-.26,1.25-.53,2.49-.82,3.73s-.7,2.5-.74,3.77c-.06,2.53,1.65,4.71,4.24,4.86,2.33.13,4.66-1.38,5.85-3.33,1.08-1.78,1.08-4.32,2.63-5.78l-4.18-2.43c-.75,2.05-1.24,4.42-.39,6.52.94,2.35,3.35,3.61,5.82,3.1,2.18-.44,4.02-2.18,4.76-4.25.95-2.64.11-5.5-.81-8.02l-3.67,2.82c1.54.86,3.08,1.73,4.61,2.59s3.12.03,3.67-1.49c1.36-3.79.29-8.39-2.66-11.15-1.1-1.03-3.12-1.77-3.78-3.17-.35-.75-.26-1.73-.28-2.53-.04-1.32-.08-2.65-.1-3.97-.2-10.09.07-20.18.81-30.25.1-1.35-1.22-2.5-2.5-2.5-1.43,0-2.4,1.15-2.5,2.5-.72,9.9-1,19.83-.82,29.75.04,2.37-.04,4.84.33,7.19s1.65,3.83,3.45,5.15c1.25.91,2.51,1.66,3.16,3.15s.61,3.02.08,4.5l3.67-1.49c-1.54-.86-3.08-1.73-4.61-2.59-1.77-.99-4.46.68-3.67,2.82.6,1.63,2.04,4.92.13,5.96-.23.12-.22.1-.36.1-.34,0-.05-.02,0,.03-.07-.09-.16-.23-.18-.49-.1-.85.36-2.09.68-2.97.9-2.48-2.48-4.02-4.18-2.43-1.48,1.38-2.13,3.24-2.75,5.11-.16.49-.39,1.33-.63,1.66-.17.25-1.44.96-1.43.91.02-.15.4.1.44.13.32.21.04.48.17-.03.26-1.04.48-2.1.72-3.14.53-2.33,1.01-4.67,1.43-7.02,1.7-9.47,2.58-19.09,2.56-28.71-.01-5.42-.31-10.83-.87-16.21-.14-1.34-1.05-2.5-2.5-2.5-1.24,0-2.64,1.15-2.5,2.5h0Z"/>
</svg>