<?xml version="1.0" encoding="UTF-8"?>
<svg id="Layer_1" xmlns="http://www.w3.org/2000/svg" version="1.1" viewBox="0 0 595.28 841.89">
  <!-- Generator: Adobe Illustrator 29.6.1, SVG Export Plug-In . SVG Version: 2.1.1 Build 9)  -->
  <defs>
    <style>
      .st0 {
        fill: #231f20;
      }

      .st1 {
        fill: none;
        stroke: #231f20;
        stroke-miterlimit: 10;
        stroke-width: 5px;
      }
    </style>
  </defs>
  <path class="st0" d="M-56,281.25c3.22,0,3.22-5,0-5s-3.22,5,0,5h0Z"/>
  <path class="st1" d="M221.14,288.04c15.86-10.04,35.86-12.04,53.86-6.04,31,11,49,43,45,76-3,19-11,37-27,49-15,11-33,16-52,12-28-6-49-30-52.38-58.17"/>
  <path class="st0" d="M325.01,343.38c.68-2.85,3.35-4.77,6.18-5.15,3.3-.44,6.38,1.38,8.17,4.21,1.95,3.07,2.46,6.8,1.36,10.27-.97,3.04-3.53,6.14-6.73,6.47s-6.63-1.68-7.12-4.99c-.2-1.34-1.89-2.07-3.08-1.75-1.43.39-1.94,1.73-1.75,3.08.73,4.96,5.51,8.19,10.23,8.64,5.21.5,9.98-2.98,12.21-7.53,2.38-4.87,2.34-10.44-.03-15.31-2.24-4.58-6.81-8.08-12.01-8.15s-10.97,3.43-12.26,8.88c-.74,3.13,4.08,4.46,4.82,1.33h0Z"/>
  <path class="st0" d="M206.5,357.85l-16.5-1.33c-4.51-.36-9.43-.52-13.37-3-2.65-1.67-5.03-5.44-3.53-8.59,1.72-3.6,7.09-4.73,10.57-5.51,5.6-1.27,11.48-1.41,17.13-.42,1.33.23,2.69-.36,3.08-1.75.33-1.21-.41-2.84-1.75-3.08-6.06-1.06-12.17-1.06-18.22.09-5.09.97-11.11,2.58-14.35,6.94s-1.92,10.02,1.37,13.9c3.62,4.27,9.41,5.47,14.71,6.03,6.94.73,13.92,1.15,20.87,1.71,1.35.11,2.5-1.23,2.5-2.5,0-1.44-1.15-2.39-2.5-2.5h0Z"/>
  <path class="st0" d="M236.5,326.25c6.43,0,6.45-10,0-10s-6.45,10,0,10h0Z"/>
  <path class="st0" d="M276.05,333.75c6.43,0,6.45-10,0-10s-6.45,10,0,10h0Z"/>
  <path class="st0" d="M269.01,310.12c6.05-.65,12.16-.45,18.14.69,1.32.25,2.7-.37,3.08-1.75.34-1.22-.41-2.82-1.75-3.08-6.42-1.23-12.97-1.57-19.47-.87-1.34.14-2.5,1.05-2.5,2.5,0,1.24,1.15,2.64,2.5,2.5h0Z"/>
  <path class="st0" d="M250.03,302.08c-8.38-3.96-17.63-5.19-26.75-3.58-1.33.24-2.08,1.86-1.75,3.08.39,1.4,1.74,1.98,3.08,1.75,7.7-1.36,15.83-.26,22.9,3.08,1.22.58,2.7.34,3.42-.9.64-1.09.33-2.84-.9-3.42h0Z"/>
  <path class="st0" d="M238.95,383.28c12.2-5.71,26.22-7.41,39.43-4.83,1.32.26,2.7-.37,3.08-1.75.34-1.23-.41-2.82-1.75-3.08-14.63-2.86-29.79-.98-43.28,5.34-1.22.57-1.53,2.33-.9,3.42.73,1.25,2.19,1.47,3.42.9h0Z"/>
  <path class="st0" d="M207.91,308.24c2.3-7.95,8.17-14.46,15.92-17.75,1.24-.53,1.52-2.36.9-3.42-.75-1.29-2.17-1.43-3.42-.9-8.78,3.73-15.58,11.6-18.22,20.74-.9,3.1,3.93,4.42,4.82,1.33h0Z"/>
  <path class="st0" d="M262.25,422.49c0,17.26-.01,34.52-.02,51.78,0,8.71,0,17.43,0,26.14,0,2.08-.08,4.18,0,6.25.08,1.94.74,3.76,2.53,4.76,1.66.92,3.79.8,5.63.88,2.15.1,4.3.17,6.45.22,8.6.2,17.21.02,25.79-.53,2.15-.14,4.29-.3,6.43-.48,1.82-.16,3.8-.17,5.54-.78,1.89-.67,3.33-1.91,4.02-3.82.62-1.72.4-3.64.31-5.43-.79-15.41-1.7-30.84-4.05-46.1s-6.14-29.79-12.63-43.54c-.81-1.71-1.66-3.4-2.55-5.07-1.51-2.84-5.83-.32-4.32,2.52,13.63,25.62,16.48,55.13,18.09,83.63.2,3.49.44,6.99.55,10.48.04,1.07.2,2.13-.92,2.56-1.59.62-3.6.51-5.28.65-8.08.66-16.18.99-24.29.99-4.14,0-8.27-.09-12.4-.26-.99-.04-1.98-.08-2.97-.14-.03,0-.69-.07-.69-.07-.44.04-.38-.31-.14.11-.23-.41-.1-1.16-.1-1.6,0-1.16,0-2.32,0-3.49v-24.4c.01-18.42.02-36.84.02-55.26,0-3.22-5-3.22-5,0h0Z"/>
  <path class="st0" d="M301.65,411.47c14.22,6.6,19.4,23.14,22.61,37.27,4.76,20.91,8.01,42.17,11.29,63.36,1.86,12,3.72,24,5.58,36l3.67-2.82c-3.09-1.7-5.47-4.82-5.92-8.39-.17-1.34-1.03-2.5-2.5-2.5-1.25,0-2.63,1.15-2.5,2.5.43,4.56.86,9.11,1.29,13.67.18,1.91.5,3.87.43,5.8-.02.61-.07,1.19-.32,1.81.11-.28-.43.68-.19.36-.28.38.04.08-.18.15-.07.02-.43-.04-.19.04s-.15-.07-.17-.08c-.49-.38-.73-.87-1-1.46-.67-1.45-.82-3.09-1.04-4.66-.65-4.57-1.31-9.14-1.96-13.72-.32-2.23-3.57-2.28-4.57-.6-3,5.03-6.85,9.42-11.4,13.11h3.54c-2.04-2.31-2.2-5.69-1.61-8.58.74-3.63,2.61-6.81,4.4-10.01,1.99-3.57,3.81-7.24,4.56-11.29.8-4.3.77-8.68.81-13.03.15-15.91,0-32.02-3.41-47.64-1.91-8.7-4.93-17.17-9.34-24.92-1.59-2.8-5.91-.28-4.32,2.52,7.82,13.75,10.69,29.54,11.64,45.16.49,8.07.51,16.15.44,24.23-.04,4.1.11,8.3-.64,12.34s-2.61,7.49-4.58,11.03c-2.16,3.88-4.13,7.78-4.68,12.24-.52,4.15.4,8.3,3.21,11.48.96,1.09,2.54.81,3.54,0,4.86-3.94,8.98-8.75,12.18-14.12l-4.57-.6c.61,4.25,1.21,8.5,1.82,12.75.46,3.2.87,6.66,3.26,9.09s6.62,2.18,8.54-.85c1.81-2.84,1.21-6.45.91-9.59-.46-4.88-.92-9.76-1.38-14.64h-5c.68,5.34,3.63,10.07,8.39,12.7,2.06,1.14,4-.73,3.67-2.82-3.38-21.81-6.59-43.65-10.31-65.4-1.85-10.78-3.84-21.55-6.18-32.24-1.72-7.89-3.9-15.74-7.44-23.03-3.86-7.96-9.7-15.16-17.86-18.94-1.22-.57-2.69-.35-3.42.9-.63,1.08-.33,2.85.9,3.42h0Z"/>
  <path class="st0" d="M262.01,425.14c-7.88,5.5-13.35,13.46-16.88,22.3-3.99,9.99-5.13,20.87-5.53,31.54-.43,11.5-.35,23.02-.48,34.53s-.25,23.42-.38,35.12c-.03,2.88-.43,6.36,1.83,8.58,1.75,1.71,4.33,2.11,6.64,1.51,5.82-1.5,6.79-7.81,6.92-12.92.07-2.76-4.36-3.47-4.91-.66s-.85,5.77.44,8.39,4.4,3.99,7.24,3.15,4.96-3.27,5.55-6.03c.8-3.72-.74-7.28-2.29-10.57l-3.93,3.03c1.46,1.17,3.23,2.58,5.07,3.08s3.49-1.23,4.21-2.7c1.44-2.96.5-6.48-1.54-8.9s-5.36-3.87-7.18-6.68c-1.66-2.55-2.37-5.61-2.69-8.6-.8-7.64-.49-15.53-.09-23.19.42-8.1,1.29-16.18,2.61-24.19,1.49-9.01,3.55-17.92,6.12-26.68.91-3.09-3.91-4.41-4.82-1.33-4.23,14.39-7.02,29.18-8.34,44.12-.65,7.36-.94,14.74-.86,22.13.07,6.3.02,13.06,2.92,18.82.76,1.51,1.78,2.93,2.98,4.13s2.74,2.2,4.09,3.33c1.05.88,2.06,1.82,2.38,3.1.23.9.13,1.76-.39,2.08h2.52c-1.22-.56-2.41-1.21-3.46-2.05-2.22-1.77-5.18.37-3.93,3.03,1.15,2.45,3.58,7.69-.13,9.21-.86.35-1.44-.05-1.74-.93-.46-1.34-.19-3.01.08-4.42l-4.91-.66c-.05,1.9-.05,3.93-.77,5.73-.25.63-.76,1.43-1.18,1.76-.2.15-.67.41-.73.43-.33.14-.8.24-.92.25-.66.07-.92.01-1.29-.2.22.12-.09-.06-.13-.11.16.17-.1-.13-.12-.17-.22-.41-.25-.87-.27-1.33-.1-2.59.04-5.2.07-7.79.12-10.71.23-21.42.35-32.12s.09-21.25.41-31.86c.3-9.69,1.16-19.46,4.31-28.69,2.96-8.67,8.06-16.95,15.67-22.26,1.11-.77,1.62-2.19.9-3.42-.64-1.09-2.31-1.67-3.42-.9h0Z"/>
</svg>