<?xml version="1.0" encoding="UTF-8"?>
<svg id="Layer_1" xmlns="http://www.w3.org/2000/svg" version="1.1" viewBox="0 0 595.28 841.89">
  <!-- Generator: Adobe Illustrator 29.6.1, SVG Export Plug-In . SVG Version: 2.1.1 Build 9)  -->
  <defs>
    <style>
      .st0 {
        fill: #231f20;
      }

      .st1 {
        fill: none;
        stroke: #231f20;
        stroke-miterlimit: 10;
        stroke-width: 5px;
      }
    </style>
  </defs>
  <path class="st0" d="M-56,281.25c3.22,0,3.22-5,0-5s-3.22,5,0,5h0Z"/>
  <path class="st1" d="M221.14,288.04c15.86-10.04,35.86-12.04,53.86-6.04,31,11,49,43,45,76-3,19-11,37-27,49-15,11-33,16-52,12-28-6-49-30-52.38-58.17"/>
  <path class="st0" d="M325.01,343.38c.68-2.85,3.35-4.77,6.18-5.15,3.3-.44,6.38,1.38,8.17,4.21,1.95,3.07,2.46,6.8,1.36,10.27-.97,3.04-3.53,6.14-6.73,6.47s-6.63-1.68-7.12-4.99c-.2-1.34-1.89-2.07-3.08-1.75-1.43.39-1.94,1.73-1.75,3.08.73,4.96,5.51,8.19,10.23,8.64,5.21.5,9.98-2.98,12.21-7.53,2.38-4.87,2.34-10.44-.03-15.31-2.24-4.58-6.81-8.08-12.01-8.15s-10.97,3.43-12.26,8.88c-.74,3.13,4.08,4.46,4.82,1.33h0Z"/>
  <path class="st0" d="M206.5,357.85l-16.5-1.33c-4.51-.36-9.43-.52-13.37-3-2.65-1.67-5.03-5.44-3.53-8.59,1.72-3.6,7.09-4.73,10.57-5.51,5.6-1.27,11.48-1.41,17.13-.42,1.33.23,2.69-.36,3.08-1.75.33-1.21-.41-2.84-1.75-3.08-6.06-1.06-12.17-1.06-18.22.09-5.09.97-11.11,2.58-14.35,6.94s-1.92,10.02,1.37,13.9c3.62,4.27,9.41,5.47,14.71,6.03,6.94.73,13.92,1.15,20.87,1.71,1.35.11,2.5-1.23,2.5-2.5,0-1.44-1.15-2.39-2.5-2.5h0Z"/>
  <path class="st0" d="M236.5,326.25c6.43,0,6.45-10,0-10s-6.45,10,0,10h0Z"/>
  <path class="st0" d="M276.05,333.75c6.43,0,6.45-10,0-10s-6.45,10,0,10h0Z"/>
  <path class="st0" d="M269.01,310.12c6.05-.65,12.16-.45,18.14.69,1.32.25,2.7-.37,3.08-1.75.34-1.22-.41-2.82-1.75-3.08-6.42-1.23-12.97-1.57-19.47-.87-1.34.14-2.5,1.05-2.5,2.5,0,1.24,1.15,2.64,2.5,2.5h0Z"/>
  <path class="st0" d="M250.03,302.08c-8.38-3.96-17.63-5.19-26.75-3.58-1.33.24-2.08,1.86-1.75,3.08.39,1.4,1.74,1.98,3.08,1.75,7.7-1.36,15.83-.26,22.9,3.08,1.22.58,2.7.34,3.42-.9.64-1.09.33-2.84-.9-3.42h0Z"/>
  <path class="st0" d="M238.95,383.28c12.2-5.71,26.22-7.41,39.43-4.83,1.32.26,2.7-.37,3.08-1.75.34-1.23-.41-2.82-1.75-3.08-14.63-2.86-29.79-.98-43.28,5.34-1.22.57-1.53,2.33-.9,3.42.73,1.25,2.19,1.47,3.42.9h0Z"/>
  <path class="st0" d="M207.91,308.24c2.3-7.95,8.17-14.46,15.92-17.75,1.24-.53,1.52-2.36.9-3.42-.75-1.29-2.17-1.43-3.42-.9-8.78,3.73-15.58,11.6-18.22,20.74-.9,3.1,3.93,4.42,4.82,1.33h0Z"/>
  <path class="st0" d="M282.41,330.07l2.85-2.3c.24-.23.42-.49.52-.8.16-.3.23-.62.22-.96.01-.34-.06-.67-.22-.96-.1-.31-.27-.58-.52-.8-.48-.44-1.1-.76-1.77-.73l-.66.09c-.42.12-.79.33-1.1.64l-2.85,2.3c-.24.23-.42.49-.52.8-.16.3-.23.62-.22.96-.01.34.06.67.22.96.1.31.27.58.52.8.48.44,1.1.76,1.77.73l.66-.09c.42-.12.79-.33,1.1-.64h0Z"/>
  <path class="st0" d="M235.53,318l-4.65-3.34c-.5-.36-1.36-.41-1.93-.25s-1.21.61-1.49,1.15c-.31.58-.46,1.28-.25,1.93l.25.6c.22.38.52.67.9.9l4.65,3.34c.5.36,1.36.41,1.93.25s1.21-.61,1.49-1.15c.31-.58.46-1.28.25-1.93l-.25-.6c-.22-.38-.52-.67-.9-.9h0Z"/>
  <path class="st0" d="M268.84,423.25c7.92,28.82,12.86,58.44,14.63,88.28.5,8.36.75,16.73.76,25.1,0,3.22,5.01,3.22,5,0-.05-30.17-3.25-60.33-9.51-89.84-1.77-8.35-3.8-16.64-6.06-24.87-.85-3.1-5.68-1.78-4.82,1.33h0Z"/>
  <path class="st0" d="M303.82,398.11c6.62,17.5,11.98,35.46,16.01,53.73,4,18.13,6.7,36.53,8.04,55.05.77,10.54,1.09,21.11,1,31.67-.03,3.22,4.97,3.22,5,0,.17-18.86-1.05-37.7-3.59-56.39-2.53-18.61-6.39-37.04-11.57-55.1-2.94-10.23-6.3-20.34-10.07-30.29-.48-1.26-1.69-2.13-3.08-1.75-1.21.33-2.23,1.81-1.75,3.08h0Z"/>
  <path class="st0" d="M315.36,417.82c12.21,13.04,19.33,29.71,24.61,46.55,2.72,8.67,5.01,17.47,7.33,26.25,2.68,10.12,5.51,20.19,8.57,30.2,3.57,11.69,7.43,23.3,11.55,34.81l4.18-2.43c-3.16-2.46-5.33-5.71-6.26-9.61-.57-2.37-4.26-2.39-4.82,0-1.04,4.42-1.41,8.96-1.03,13.48l3.16-2.41c-3.54-.54-6.48-3.41-6.6-7.09-.1-3.21-4.94-3.23-5,0-.05,2.51-1.12,4.71-2.97,6.39l3.03-.39c-1.73-1.32-1.57-4.31-1.12-6.17.83-3.43,2.73-6.5,3.33-9.99.68-3.95-.1-7.88-1.2-11.68s-2.31-7.6-3.46-11.39c-4.66-15.28-9.32-30.56-13.97-45.85-2.62-8.6-5.24-17.19-7.86-25.79-.94-3.07-5.76-1.76-4.82,1.33,4.8,15.76,9.61,31.52,14.41,47.28,2.38,7.8,4.76,15.6,7.13,23.4,1.16,3.81,2.34,7.61,3.48,11.42s2.16,7.46,1.2,11.24-3.05,7.13-3.44,11.07c-.36,3.69.83,7.17,3.8,9.45.9.69,2.28.29,3.03-.39,2.8-2.54,4.36-6.15,4.43-9.92h-5c.18,5.71,4.52,11.04,10.27,11.91,1.45.22,3.32-.62,3.16-2.41-.35-4.09-.09-8.15.85-12.15h-4.82c1.11,4.64,3.78,8.88,7.55,11.81.89.69,1.99,1,3.03.39.9-.53,1.52-1.79,1.15-2.82-7.35-20.54-13.83-41.39-19.44-62.47-4.72-17.72-9.12-35.69-17.04-52.33-4.37-9.17-9.91-17.79-16.87-25.22-2.2-2.35-5.73,1.19-3.54,3.54h0Z"/>
  <path class="st0" d="M271.01,432.33c-9.75.49-13.7,10.98-15.63,19.04-2.74,11.42-4.11,23.16-4.45,34.9-.66,23.53,2.79,46.99,7.25,70.03.63,3.28,1.29,6.55,1.96,9.82.33,1.63.67,3.26,1.01,4.89s.48,3.43,1.2,4.89c1.4,2.83,5.03,2.91,7.25,1.02,2.56-2.18,1.93-5.71.86-8.48l-4.57,1.93c2.65,4.65,6.25,8.57,10.56,11.72,1.56,1.14,3.79-.4,3.76-2.16-.05-3.77-.1-7.55-.15-11.32l-3.16,2.41c2.65.69,5.13,1.7,7.5,3.07,1.45.83,3.17.04,3.67-1.49,1.32-4.04-.64-8.13-3.45-11.02-2.59-2.67-6.09-4.16-8.84-6.63-2.95-2.65-3.66-6.24-3.96-10.04-.37-4.64-.64-9.29-.9-13.94-.54-9.5-.92-19.02-1.14-28.53-.2-8.31-.4-16.67.41-24.96.86-8.71,3.08-17.35,7.92-24.73,1.77-2.7-2.56-5.21-4.32-2.52-9.05,13.82-9.4,31.04-9.12,47,.17,9.6.5,19.2.98,28.79.24,4.79.53,9.59.85,14.38.28,4.17.29,8.64,1.88,12.57,1.79,4.4,5.41,6.88,9.22,9.42,2.81,1.87,6.91,5,5.64,8.89l3.67-1.49c-2.73-1.57-5.66-2.78-8.7-3.57-1.55-.41-3.19.77-3.16,2.41.05,3.77.1,7.55.15,11.32l3.76-2.16c-3.61-2.63-6.56-6.05-8.76-9.93-1.36-2.39-5.62-.78-4.57,1.93.35.9.94,2.05.8,3.05-.05.39-.21.53-.43.43.07.03,1.08.22.85.5,0,.01-.23-.91-.15-.58-.14-.62-.26-1.24-.39-1.86-.28-1.32-.55-2.63-.83-3.95-1.08-5.21-2.13-10.44-3.11-15.67-1.96-10.42-3.68-20.88-4.85-31.42-2.31-20.75-2.62-41.95,1.56-62.49.95-4.68,1.88-9.6,4.09-13.88,1.67-3.23,4.19-6.38,7.85-6.57,3.2-.16,3.22-5.16,0-5h0Z"/>
</svg>