<?xml version="1.0" encoding="UTF-8"?>
<svg id="Layer_1" xmlns="http://www.w3.org/2000/svg" version="1.1" viewBox="0 0 595.28 841.89">
  <!-- Generator: Adobe Illustrator 29.6.1, SVG Export Plug-In . SVG Version: 2.1.1 Build 9)  -->
  <defs>
    <style>
      .st0 {
        fill: #231f20;
      }

      .st1 {
        fill: none;
        stroke: #231f20;
        stroke-miterlimit: 10;
        stroke-width: 5px;
      }
    </style>
  </defs>
  <path class="st0" d="M-56,281.25c3.22,0,3.22-5,0-5s-3.22,5,0,5h0Z"/>
  <path class="st1" d="M221.14,288.04c15.86-10.04,35.86-12.04,53.86-6.04,31,11,49,43,45,76-3,19-11,37-27,49-15,11-33,16-52,12-28-6-49-30-52.38-58.17"/>
  <path class="st0" d="M325.01,343.38c.68-2.85,3.35-4.77,6.18-5.15,3.3-.44,6.38,1.38,8.17,4.21,1.95,3.07,2.46,6.8,1.36,10.27-.97,3.04-3.53,6.14-6.73,6.47s-6.63-1.68-7.12-4.99c-.2-1.34-1.89-2.07-3.08-1.75-1.43.39-1.94,1.73-1.75,3.08.73,4.96,5.51,8.19,10.23,8.64,5.21.5,9.98-2.98,12.21-7.53,2.38-4.87,2.34-10.44-.03-15.31-2.24-4.58-6.81-8.08-12.01-8.15s-10.97,3.43-12.26,8.88c-.74,3.13,4.08,4.46,4.82,1.33h0Z"/>
  <path class="st0" d="M206.5,357.85l-16.5-1.33c-4.51-.36-9.43-.52-13.37-3-2.65-1.67-5.03-5.44-3.53-8.59,1.72-3.6,7.09-4.73,10.57-5.51,5.6-1.27,11.48-1.41,17.13-.42,1.33.23,2.69-.36,3.08-1.75.33-1.21-.41-2.84-1.75-3.08-6.06-1.06-12.17-1.06-18.22.09-5.09.97-11.11,2.58-14.35,6.94s-1.92,10.02,1.37,13.9c3.62,4.27,9.41,5.47,14.71,6.03,6.94.73,13.92,1.15,20.87,1.71,1.35.11,2.5-1.23,2.5-2.5,0-1.44-1.15-2.39-2.5-2.5h0Z"/>
  <path class="st0" d="M236.5,326.25c6.43,0,6.45-10,0-10s-6.45,10,0,10h0Z"/>
  <path class="st0" d="M276.05,333.75c6.43,0,6.45-10,0-10s-6.45,10,0,10h0Z"/>
  <path class="st0" d="M269.01,310.12c6.05-.65,12.16-.45,18.14.69,1.32.25,2.7-.37,3.08-1.75.34-1.22-.41-2.82-1.75-3.08-6.42-1.23-12.97-1.57-19.47-.87-1.34.14-2.5,1.05-2.5,2.5,0,1.24,1.15,2.64,2.5,2.5h0Z"/>
  <path class="st0" d="M250.03,302.08c-8.38-3.96-17.63-5.19-26.75-3.58-1.33.24-2.08,1.86-1.75,3.08.39,1.4,1.74,1.98,3.08,1.75,7.7-1.36,15.83-.26,22.9,3.08,1.22.58,2.7.34,3.42-.9.64-1.09.33-2.84-.9-3.42h0Z"/>
  <path class="st0" d="M238.95,383.28c12.2-5.71,26.22-7.41,39.43-4.83,1.32.26,2.7-.37,3.08-1.75.34-1.23-.41-2.82-1.75-3.08-14.63-2.86-29.79-.98-43.28,5.34-1.22.57-1.53,2.33-.9,3.42.73,1.25,2.19,1.47,3.42.9h0Z"/>
  <path class="st0" d="M207.91,308.24c2.3-7.95,8.17-14.46,15.92-17.75,1.24-.53,1.52-2.36.9-3.42-.75-1.29-2.17-1.43-3.42-.9-8.78,3.73-15.58,11.6-18.22,20.74-.9,3.1,3.93,4.42,4.82,1.33h0Z"/>
  <path class="st0" d="M280.56,329.71c2.05.21,4.25-.38,5.93-1.57.41-.29.73-.63.86-1.12.12-.45.07-1.05-.19-1.44s-.64-.75-1.12-.86-1.04-.1-1.44.19c-.43.31-.9.56-1.38.77l.45-.19c-.59.25-1.21.42-1.85.51l.5-.07c-.58.08-1.17.09-1.75.03-.45-.05-1.02.24-1.33.55-.33.33-.57.86-.55,1.33s.18.99.55,1.33c.39.36.8.5,1.33.55h0Z"/>
  <path class="st0" d="M234.13,317.13c-.41-.07-.81-.18-1.2-.34l.45.19c-.46-.19-.89-.45-1.28-.75l.38.29c-.36-.28-.68-.61-.97-.97l.29.38c-.19-.25-.37-.52-.51-.8-.21-.41-.69-.74-1.12-.86s-1.05-.07-1.44.19c-.89.57-1.16,1.64-.67,2.57.55,1.04,1.36,1.86,2.3,2.55.35.26.74.47,1.14.64.54.23,1.07.44,1.65.53.25.08.5.09.75.03.25-.01.48-.09.7-.22.39-.23.76-.67.86-1.12.11-.48.09-1.02-.19-1.44-.25-.39-.65-.78-1.12-.86h0Z"/>
  <path class="st0" d="M255.22,423.9c-2.11,16.48-4.22,32.96-6.33,49.44l-.79,6.18c-.24,1.86-.65,3.85.32,5.59s2.89,2.38,4.79,2.5,3.85.03,5.77.04c2.02,0,4.03.02,6.05.03,1.85,0,3.87.23,5.6-.53,3.89-1.7,2.89-6.9,2.71-10.29-.48-9.22-1.65-18.4-3.44-27.46-.55-2.77-5-2.13-4.91.66.43,13.22,1.57,26.41,3.04,39.56.73,6.54,1.54,13.06,2.39,19.59.42,3.26.86,6.52,1.29,9.78.37,2.79.32,6.2,1.8,8.69,1.69,2.83,4.77,3.11,7.75,3.1,3.25-.01,6.51-.03,9.76-.04,2.87-.01,6.33.47,9.05-.61s3.93-3.83,3.96-6.68-.61-5.99-.99-8.91c-.42-3.3-.86-6.61-1.32-9.91-.9-6.48-1.87-12.95-2.91-19.41-2.34-14.54-5.04-29.01-8.09-43.41-.57-2.71-5.25-2.16-4.91.66.97,8.06,2.43,16.05,4.5,23.9.48,1.82.95,3.65,1.53,5.44.52,1.58,1.24,3.14,2.65,4.11,1.67,1.15,3.59.95,5.41.32,2.02-.7,4.02-1.45,6.02-2.17,1.56-.56,3.32-1,4.67-1.98,1.82-1.32,2.31-3.44,1.69-5.55-.48-1.64-1.25-3.23-1.89-4.8-.78-1.93-1.57-3.86-2.38-5.78-3.05-7.3-6.23-14.54-9.57-21.72-3.79-8.14-7.78-16.18-11.95-24.14-1.49-2.85-5.81-.33-4.32,2.52,6.55,12.5,12.65,25.23,18.26,38.17,1.38,3.19,2.73,6.38,4.05,9.6.61,1.48,1.21,2.97,1.81,4.46.35.87.73,1.74,1.04,2.62.05.14.19.75.24.8-.02.31.05.2.22-.32.1.09.02.15-.26.19-1.27.25-2.63,1-3.87,1.44-1.84.66-3.66,1.4-5.53,1.99-.99.31-1,.21-1.37-.77-.62-1.63-1.01-3.39-1.46-5.07-2.04-7.64-3.57-15.42-4.51-23.27l-4.91.66c5.07,23.95,9.19,48.1,12.27,72.38.34,2.69,1,5.56.86,8.28-.03.58-.08,1.23-.56,1.59-.78.58-2.4.32-3.29.33-3.09.01-6.18.03-9.28.04-1.46,0-2.93.01-4.39.02-.93,0-2.48.27-3.32-.27-.67-.43-.76-1.42-.89-2.14-.24-1.37-.38-2.76-.57-4.14-.41-3.1-.82-6.19-1.23-9.29-.8-6.11-1.56-12.23-2.27-18.36-1.58-13.79-2.81-27.64-3.26-41.52l-4.91.66c1.41,7.11,2.41,14.29,2.96,21.51.14,1.78.25,3.56.34,5.35.04.89.08,1.78.11,2.68.02.66.24,1.7,0,2.33-.02.05,0,.15.09.04.17-.22-.2.03-.37.04-.9.05-1.8,0-2.7,0-1.77,0-3.55-.02-5.32-.02s-3.55-.02-5.32-.02c-.67,0-1.35-.04-2.01-.06-.09,0-.33-.13-.32-.13.17.06.26.17.27.35-.02-.26-.02-.51,0-.77.19-3.54.89-7.13,1.35-10.65.95-7.42,1.9-14.83,2.85-22.25,1.08-8.41,2.15-16.81,3.23-25.22.17-1.34-1.27-2.5-2.5-2.5-1.49,0-2.33,1.15-2.5,2.5h0Z"/>
  <path class="st0" d="M253.32,486.46c-.87,12.53-.56,25.12.97,37.58.16,1.31.42,2.64.47,3.96.04,1.11-.22,1.36-1.16,1.86-2.33,1.25-4.13,2.54-5.24,5.04-1.86,4.18-3.72,10.93.17,14.54s11.78-.44,8.98-5.75c-.95-1.81-4.19-1.53-4.57.6-.53,2.95-.56,6.19,1.13,8.8,1.46,2.26,3.99,3.51,6.68,3.2,2.84-.33,5.09-2.24,5.34-5.17.05-.58,0-1.14-.07-1.71-.03-.27-.02-1.71-.18-1.85.12.11-.14-.3-.04-.05.34.86-1.01-.2-.08.18-.15-.06.14.02.23.02.42,0,.85.06,1.27.09,3.33.25,5.82-1.59,6.02-5.03.09-1.45-.15-2.93-.26-4.37-.16-1.98-.31-3.95-.47-5.93-.57-7.17-1.13-14.33-1.7-21.5-.64-8.15-1.29-16.31-1.93-24.46-.11-1.35-1.07-2.5-2.5-2.5-1.27,0-2.61,1.15-2.5,2.5,1.01,12.85,2.03,25.7,3.04,38.55.25,3.13.49,6.26.74,9.39.12,1.48.23,2.97.35,4.45.06.82.14,1.65.19,2.47.03.45-.13,1.2-.02,1.59s-.03-.21.27-.12c-.4-.12-1.14-.02-1.57-.06-1.24-.1-2.52-.09-3.65.52-2.56,1.39-2.45,3.97-2.2,6.47.04.38.07,1.07.02,1.22-.04.13-.09.13-.34.25.31-.14-.09.02-.13.04-.35.11-.06.06-.54.08-.38.02-.55.03-1.1-.21.17.07.09.05-.14-.11.21.15-.33-.31-.39-.39-.34-.43-.53-.95-.66-1.48-.29-1.15-.22-2.39-.01-3.55l-4.57.6c-.09-.17,0-.92-.06-.46.02-.16.19-.26.21-.39-.01.1-.25.27,0,.06-.37.32-.79.45-1.21.39-.09-.01-.07.03-.16-.02-.32-.17.16.22-.08-.06-.1-.11-.13-.18-.21-.31-.41-.7-.42-1.54-.37-2.33.1-1.9.71-3.98,1.42-5.74.3-.74.69-1.5,1.32-2.02.7-.58,1.62-.88,2.4-1.33,2.18-1.25,3.36-3.31,3.33-5.82s-.6-5.06-.86-7.55c-.56-5.35-.9-10.72-1.02-16.1-.13-6.03.02-12.06.44-18.08.09-1.35-1.22-2.5-2.5-2.5-1.43,0-2.41,1.15-2.5,2.5h0Z"/>
  <path class="st0" d="M297.71,476.59c4.84,11.03,8.23,22.71,10.16,34.6.95,5.83,1.5,11.73,1.71,17.64.11,3.07.11,6.13.02,9.2-.08,2.56-.54,5.63,1.72,7.44,2.69,2.16,5.88.22,7.24-2.43.73-1.42,1.03-2.92,1.38-4.47.41-1.82.83-3.64,1.24-5.46l-4.91-.66c.48,4.17,3.18,7.65,7.3,8.79,1.32.37,2.69-.45,3.08-1.75,1.32-4.4.91-8.91-.89-13.1l-2.82,3.67c3.94,1.4,7.14-2.55,7.39-6.14.28-4.2-3.31-6.69-5.4-9.82-2.3-3.46-2.66-8.06-3.43-12.04-.92-4.76-1.84-9.52-2.76-14.29-1.04-5.41-2.09-10.82-3.13-16.22-.22-1.12-1.37-1.77-2.41-1.84-1.36-.08-2.71-.16-4.07-.24-3.21-.19-3.2,4.81,0,5,1.36.08,2.71.16,4.07.24l-2.41-1.84c1.64,8.48,3.27,16.95,4.91,25.43.79,4.09,1.42,8.25,2.44,12.29.46,1.84,1.09,3.67,2.04,5.32.89,1.56,2.13,2.88,3.29,4.24.86,1.01,2.02,2.48,1.89,3.57-.06.53-.33,1.08-.55,1.35-.09.1-.39.41-.25.26.02-.02.36.04.01.01-.4-.04.45.16-.29-.1-.92-.33-2.07.15-2.63.9-.65.87-.61,1.81-.2,2.78,1.26,2.93,1.3,6.23.39,9.25l3.08-1.75c-1.79-.49-3.4-2.05-3.62-3.97-.14-1.24-.84-2.3-2.17-2.46-1.18-.14-2.46.56-2.74,1.79-.61,2.7-.99,5.62-1.9,8.23-.14.39-.32.75-.55,1.1.07-.1-.24.37-.21.26-.1.39-.15-.09.04.06-.05-.04,1.12.21.88.43,0,0-.12-1.07-.12-1.22.1-5.49.21-10.92-.15-16.41-.73-11.01-2.66-21.95-5.81-32.52-1.79-6.02-3.99-11.9-6.51-17.64-.54-1.24-2.35-1.52-3.42-.9-1.28.75-1.44,2.18-.9,3.42h0Z"/>
</svg>